<svg xmlns="http://www.w3.org/2000/svg" width="33" height="34" viewBox="0 0 33 34">
    <g fill="#064545" fill-rule="evenodd" transform="translate(0 2)">
        <path fill-rule="nonzero" d="M29.728 9.163c-.272-.272-.68-.272-.952 0l-3.538 3.538c-.408-.204-1.156-.545-2.04-.749.407-.272.816-.544 1.224-.952 1.973-1.973 2.177-4.694 2.177-5.646l2.108-2.11c.273-.271.273-.68 0-.951-.272-.273-.68-.273-.952 0L25.646 4.4c-.952 0-3.741.272-5.578 2.177-.408.408-.748.885-1.02 1.36-.204-1.02-.545-1.768-.817-2.244l3.538-3.538c.272-.272.272-.68 0-.952-.272-.272-.68-.272-.953 0l-3.81 3.81c-.475.272-2.788 1.768-3.74 4.217-.137 0-.205 0-.273.068-.136.068-3.197 1.769-4.013 4.898-.749 2.721.544 5.374.952 6.055L.204 29.844c-.272.272-.272.68 0 .952.136.136.34.204.476.204.136 0 .34-.068.476-.204l9.592-9.592c.545.272 2.313 1.157 4.354 1.157.612 0 1.157-.068 1.7-.205 3.13-.816 4.83-3.877 4.899-4.013.068-.136.068-.34.068-.476 2.449-.953 3.877-3.266 4.15-3.742l3.809-3.81c.272-.271.272-.68 0-.952zm-8.776-1.632c1.293-1.293 3.198-1.633 4.218-1.77-.068 1.021-.408 2.858-1.769 4.219-1.36 1.36-3.265 1.7-4.217 1.768.136-1.02.476-2.925 1.768-4.217zm-3.877-1.02c.408.884 1.088 2.72.544 4.557-.476 1.7-1.769 2.925-2.653 3.537.136-1.7-.408-3.265-.816-4.217 0-.068 0-.136.068-.272.544-1.701 2.04-2.994 2.857-3.606zm-6.939 8.026c.476-1.768 1.973-3.06 2.79-3.673.407.884 1.088 2.721.543 4.558-.476 1.837-1.972 3.061-2.789 3.673-.34-.884-1.02-2.72-.544-4.558zm6.327 6.327c-.409.136-.885.204-1.361.204-1.292 0-2.517-.408-3.197-.748.204-.272.544-.68.884-1.089l.068-.068c.68-.68 1.565-1.292 2.653-1.632.476-.136.885-.204 1.429-.204 1.292 0 2.517.408 3.197.748-.612.816-1.905 2.313-3.673 2.789zm4.217-4.286c-.068.068-.204.068-.272.068-.816-.34-2.04-.748-3.401-.748-.272 0-.544 0-.817.068.613-.816 1.837-2.245 3.674-2.79 1.837-.475 3.673.137 4.558.545-.612.884-1.905 2.381-3.742 2.857z"/>
        <rect width="2.5" height="41" x="15.5" y="-5.5" stroke="#FFF" rx=".75" transform="rotate(-45 16.75 15)"/>
    </g>
</svg>
