<svg xmlns="http://www.w3.org/2000/svg" width="13" height="32" viewBox="0 0 13 32">
    <path fill="#064545" stroke="#064545" stroke-width=".5" d="M1 30.625c0 .207.168.375.375.375h9.21c.208 0 .376-.168.376-.375 0-1.365.375-2.034.771-2.743.426-.76.867-1.548.867-3.108s-.44-2.348-.867-3.109c-.396-.708-.771-1.377-.771-2.742s.375-2.034.771-2.742c.426-.761.867-1.548.867-3.108s-.44-2.347-.867-3.108c-.396-.708-.771-1.377-.771-2.742 0-1.364.375-2.033.771-2.741.426-.76.867-1.547.867-3.107 0-.207-.168-.375-.375-.375H3.013c-.208 0-.375.168-.375.375 0 1.364-.375 2.032-.771 2.74C1.44 4.877 1 5.664 1 7.224s.44 2.347.867 3.108c.396.708.77 1.377.77 2.742 0 1.364-.374 2.033-.77 2.742-.426.76-.867 1.548-.867 3.108s.44 2.348.866 3.108c.397.709.772 1.378.772 2.743s-.375 2.034-.771 2.742C1.44 28.277 1 29.064 1 30.625zm10.078-26.51c-.427.761-.867 1.548-.867 3.108s.44 2.347.867 3.108c.396.708.77 1.377.77 2.742 0 1.364-.374 2.033-.77 2.742-.427.76-.867 1.548-.867 3.108s.44 2.348.866 3.108c.397.709.772 1.378.772 2.743s-.375 2.034-.771 2.742c-.391.698-.793 1.417-.858 2.734H6.365c.047-1.174.392-1.802.761-2.455.426-.757.867-1.539.867-3.09 0-1.55-.44-2.333-.867-3.09-.396-.702-.77-1.366-.77-2.72s.374-2.018.77-2.72c.426-.757.867-1.539.867-3.09 0-1.55-.44-2.332-.867-3.089-.396-.702-.77-1.366-.77-2.72 0-1.353.374-2.017.77-2.72.399-.707.806-1.445.857-2.806h3.855c-.062 1.118-.402 1.726-.76 2.366zm-7.69 20.659c0-1.56-.44-2.348-.867-3.109-.396-.708-.771-1.377-.771-2.742s.375-2.034.771-2.742c.426-.761.867-1.548.867-3.108s-.44-2.347-.867-3.108c-.396-.708-.771-1.377-.771-2.742 0-1.364.375-2.033.771-2.741.39-.697.793-1.416.858-2.732h3.854c-.05 1.163-.393 1.788-.76 2.438-.427.756-.868 1.538-.868 3.088s.441 2.333.868 3.089c.396.703.77 1.366.77 2.72s-.374 2.018-.77 2.72c-.427.757-.868 1.539-.868 3.09 0 1.55.441 2.333.868 3.09.396.702.77 1.366.77 2.72s-.374 2.018-.77 2.721c-.4.71-.81 1.452-.858 2.824H1.76c.062-1.12.403-1.727.761-2.368.426-.76.867-1.548.867-3.108z"/>
</svg>
