<svg xmlns="http://www.w3.org/2000/svg" width="31" height="31" viewBox="0 0 31 31">
    <path fill="#064545" stroke="#064545" stroke-width=".5" d="M25.362 1h-2.143c-7.327.018-13.258 5.959-13.264 13.286v4.864l-.075-.075c-2.144-2.129-5.603-2.129-7.747 0l-.975.986c-.101.1-.158.237-.158.38 0 .143.057.28.158.38l.975.986c1.03 1.026 2.426 1.6 3.879 1.597.629-.006 1.252-.118 1.843-.333-.214.592-.327 1.215-.332 1.843-.004 1.454.57 2.85 1.596 3.879l.986.975c.102.102.24.16.386.16.14-.001.276-.06.375-.16l.985-.975c2.13-2.144 2.13-5.603 0-7.747l-.075-.075h4.865c7.33-.005 13.274-5.944 13.285-13.275V5.554C29.92 3.037 27.88 1 25.362 1zm-22.5 20.046l-.6-.61.6-.6c1.722-1.712 4.503-1.712 6.225 0l.61.6-.61.61c-1.718 1.691-4.475 1.691-6.193 0h-.032zm8.196 6.986l-.6.6-.61-.6c-1.712-1.722-1.712-4.503 0-6.225l.61-.61.6.61c1.721 1.713 1.736 4.494.033 6.225h-.033zM28.823 7.675c0 6.735-5.447 12.201-12.182 12.225h-5.615v-5.614c.003-4.204 2.169-8.11 5.732-10.34 1.013 2.606 2.616 4.942 4.683 6.825.933.839 1.953 1.575 3.042 2.197.08.05.174.077.268.075.24-.003.45-.165.512-.397.063-.232-.037-.477-.244-.6-1.025-.588-1.984-1.285-2.86-2.078-1.953-1.772-3.467-3.973-4.426-6.429-.014-.039-.036-.075-.064-.107 1.719-.89 3.625-1.356 5.56-1.36h2.144c1.925.005 3.482 1.567 3.482 3.492l-.032 2.111zm-4.618-3.032c-.306-.252-.727-.313-1.092-.16-.366.152-.618.494-.655.888.007.269.114.525.3.718.41.375 1.037.375 1.447 0 .374-.41.374-1.037 0-1.446z"/>
</svg>
