<svg xmlns="http://www.w3.org/2000/svg" width="27" height="29" viewBox="0 0 27 29">
    <path fill="#064545" d="M1.796 25.262c.183.148.425.201.653.143.224-.059.407-.222.491-.439l.035-.089c.081-.182.085-.39.011-.576-.074-.186-.22-.334-.404-.41l-.123-.04c-1.274-1.298-1.338-3.362-.148-4.738.193-.213.398-.414.615-.602.27-.242.527-.5.766-.774.825-.987.786-1.914.653-2.96-.11-.497-.051-1.018.167-1.479.231-.262.512-.475.826-.626.425-.224.81-.517 1.14-.868.874-1.01 1.144-2.465.785-4.25L7.23 7.37c-.177-.858-.344-1.667-.079-2.323.12-.265.269-.516.442-.75.363-.459.617-.995.742-1.568.028-.2.043-.403.044-.606-.01-.166.007-.333.055-.493.04-.068.106-.117.181-.138.177-.056.368-.044.536.034.408.266.71.667.855 1.134.054.124.098.247.147.375.18.603.483 1.162.89 1.642.345.329.737.605 1.163.819.37.153.69.404.929.725.187.355.064.892-.064 1.48-.05.231-.103.463-.138.685-.156 1.02-.004 2.065.438 2.998.363.76.54 1.184.344 1.756-.16.335-.38.637-.649.892-.559.49-.928 1.163-1.041 1.899-.01.513.104 1.02.334 1.48.078.18.145.367.201.556.077.397-.004.808-.226 1.145-.132.169-.3.307-.491.404-.286.164-.543.374-.762.621-.248.322-.447.68-.59 1.06-.071.18-.153.354-.245.523-.383.661-1.09 1.223-1.587 1.248-.33.017-.609.256-.677.582-.161.756-.635 1.409-1.303 1.794-.668.386-1.468.469-2.2.228.422-.528.83-1.06 1.213-1.608.383-.547.683-1.016 1.007-1.539.768-1.27 1.454-2.587 2.054-3.945.899-2.115 1.901-6.282 2.024-11.613.015-.203-.054-.402-.189-.553-.135-.151-.326-.24-.528-.246-.402 0-.73.322-.737.725-.118 5.124-1.061 9.079-1.906 11.066-.577 1.299-1.233 2.56-1.965 3.777-.305.494-.63.987-.983 1.48-.988 1.411-2.1 2.732-3.32 3.945-.21.217-.266.54-.143.816.124.276.401.449.702.437.185-.006.36-.082.491-.213.148-.147.285-.295.428-.443.908.852 2.102 1.33 3.345 1.341h.025c1.328 0 2.601-.533 3.537-1.48.233-.247.453-.507.658-.779.178-.242.372-.473.58-.69.447-.439.85-.493 1.7-.464h.063c.877.115 1.765-.107 2.486-.62.408-.382.73-.846.943-1.362.122-.296.287-.572.492-.819.761-.774 2.019-.798 2.947-.685h.172c.983.128 2.132.271 3.169-.247.35-.188.679-.413.982-.67.265-.255.58-.452.924-.577.126-.028.254-.047.383-.054.374-.015.74-.11 1.076-.277.412-.241.71-.64.825-1.104.141-.567.057-1.167-.236-1.672-.472-.702-1.183-1.207-1.999-1.42l-.393-.109c-.416-.09-.81-.257-1.164-.493-.24-.228-.447-.488-.614-.774-.325-.607-.825-1.1-1.435-1.415-.864-.375-1.714-.109-2.456.123-.192.059-.383.118-.57.163-.257.062-.521.093-.786.093h-.059c-.407 0-.737.331-.737.74s.33.74.737.74c.402.004.803-.04 1.194-.133.22-.055.442-.124.663-.193.46-.214.977-.274 1.474-.172.335.215.606.516.786.872.247.41.554.78.909 1.1.48.366 1.028.634 1.61.79.129.034.261.073.384.118.476.107.898.38 1.194.769.094.16.122.351.078.532-.015.078-.059.146-.122.193-.158.059-.324.09-.492.093-.198.017-.395.047-.59.09-.559.169-1.073.464-1.502.862-.218.19-.455.354-.708.493-.638.316-1.474.212-2.323.104h-.172c-1.793-.222-3.233.163-4.171 1.12-.32.355-.58.762-.766 1.203-.138.31-.33.593-.57.833-.44.272-.965.372-1.474.281h-.108c-1.004-.138-2.016.188-2.751.888-.254.263-.492.541-.713.833-.169.229-.35.448-.545.656-.667.66-1.564 1.033-2.5 1.04-.615-.008-1.216-.178-1.744-.493.352.095.716.143 1.08.143.686 0 1.36-.169 1.966-.493.933-.505 1.644-1.342 1.994-2.347.942-.338 1.733-1.003 2.23-1.874.126-.22.236-.45.33-.685.088-.248.21-.482.363-.696.125-.123.265-.23.418-.315.378-.209.702-.503.948-.858l.118-.208c2.132-.562 4.305-.954 6.499-1.173.263-.027.492-.192.601-.434.11-.242.081-.524-.073-.74-.155-.216-.412-.332-.675-.306-2.018.202-4.019.545-5.989 1.026-.006-.166-.03-.331-.069-.493-.07-.263-.16-.52-.27-.77-.13-.238-.211-.502-.236-.774.109-.398.337-.753.654-1.015.413-.398.738-.879.953-1.41.408-1.17 0-2.077-.403-2.876-.315-.662-.424-1.405-.314-2.13.029-.193.078-.39.122-.592.172-.764.369-1.632-.073-2.466-.36-.585-.888-1.047-1.513-1.326-.297-.145-.572-.33-.816-.553-.263-.339-.458-.725-.575-1.139-.054-.138-.103-.27-.162-.404-.27-.802-.824-1.475-1.557-1.894C9.289-.03 8.685-.07 8.133.117c-.45.151-.82.48-1.022.912-.144.346-.211.72-.196 1.095 0 .128-.008.257-.025.385-.093.36-.26.695-.491.986-.235.321-.436.667-.6 1.03-.427 1.07-.201 2.195 0 3.181l.035.178c.186.907.255 2.165-.457 2.988-.228.224-.488.412-.771.557-.5.253-.94.611-1.287 1.05-.45.76-.602 1.66-.428 2.526.113.863.113 1.292-.314 1.8-.2.225-.414.44-.639.64-.253.227-.494.465-.722.716-.877 1.012-1.31 2.337-1.2 3.674.11 1.337.754 2.573 1.785 3.427h-.005z"/>
</svg>
