<svg xmlns="http://www.w3.org/2000/svg" width="30" height="30" viewBox="0 0 30 30">
    <path fill="#064545" d="M13.89.615c.95-.52 1.85.055 2.35.4.111.08.228.151.35.215.096.034.194.06.294.08.565.135 1.74.42 1.855 1.755.024.268-.098.528-.318.682-.22.154-.507.179-.75.065-.244-.114-.408-.35-.432-.617-.02-.19-.08-.275-.715-.425-.19-.036-.378-.088-.56-.155-.205-.095-.4-.209-.585-.34-.335-.22-.62-.395-.775-.35-.09.196-.163.4-.215.61-.105.554-.373 1.064-.77 1.465-.472.32-1.034.48-1.605.46-.224.002-.448.032-.665.09-.28.295-.225.92-.225 1.295.048.262.013.533-.1.775-.377.563-.894 1.018-1.5 1.32-.219.12-.42.27-.6.445-.12.355.075.7.415 1.235.194.272.346.572.45.89.077.315.127.636.15.96.065.605.12.985.335 1.105.304.056.616.056.92 0 .65-.142 1.328-.072 1.935.2.715.4.94 1.205 1.115 1.845.07.306.178.602.325.88.223.343.13.801-.21 1.03-.122.082-.267.126-.415.125-.25.002-.485-.122-.625-.33-.236-.407-.405-.85-.5-1.31-.11-.38-.24-.85-.41-.945-.344-.075-.7-.075-1.045 0-.614.131-1.254.067-1.83-.185-.885-.515-.99-1.475-1.07-2.245-.02-.247-.056-.493-.11-.735-.073-.165-.162-.322-.265-.47-.375-.585-.935-1.465-.565-2.54.238-.522.643-.951 1.15-1.22L8.8 6.6c-.22-.268-.418-.552-.595-.85-.13-.24-.3-.458-.5-.645-.165-.03-.525.32-.815.6-.245.253-.514.48-.805.68-.356.2-.74.345-1.14.43-.415.11-.855.22-1 .44-.058.295-.058.6 0 .895.084.536.05 1.084-.1 1.605-.212.477-.528.9-.925 1.24-.265.275-.57.565-.605.775.034.325.141.638.315.915.27.457.433.97.475 1.5-.033.534-.181 1.054-.435 1.525-.154.27-.25.57-.28.88.05.23.415.495.735.73.389.25.728.571 1 .945.216.378.371.788.46 1.215.1.37.22.825.385.91.295.005.587-.05.86-.16.456-.158.933-.246 1.415-.26.444.04.876.167 1.27.375.324.195.697.294 1.075.285.13-.035.4-.37.58-.59.289-.389.64-.727 1.04-1-.155-.245-.32-.505-.5-.745-.16-.214-.195-.498-.09-.745.106-.246.335-.418.6-.45.267-.032.53.08.69.295 2.281 3.073 3.704 6.696 4.125 10.5.665.03 1.385.075 2 .115.615.04 1.24.08 1.845.11-.32-5.52 1.28-10.635 4.445-14.135.17-.227.455-.338.734-.288.28.051.506.255.586.528.08.273-.002.567-.21.76-.398.442-.767.91-1.105 1.4.323-.136.658-.243 1-.32.285-.048.557-.148.805-.295.177-.342.253-.727.22-1.11-.017-.486.076-.97.27-1.415.28-.47.65-.88 1.085-1.21.21-.185.59-.49.59-.615.025-.235-.295-.6-.58-.92-.289-.296-.533-.633-.725-1-.163-.442-.25-.909-.26-1.38-.035-.39-.08-.855-.25-1-.307-.111-.635-.152-.96-.12-.529.03-1.058-.05-1.555-.235-.469-.245-.88-.586-1.21-1-.235-.275-.545-.615-.735-.65-.36.04-.705.172-1 .385-.412.273-.877.455-1.365.535-.494.025-.99-.026-1.47-.15-.289-.083-.59-.119-.89-.105-.11.08.015.73.085 1.08.05.27.105.55.135.835.013.372-.034.743-.14 1.1-.14.57-.215.965-.035 1.26.139.23.144.517.013.752-.13.235-.376.383-.645.388-.268.005-.52-.135-.658-.365-.368-.745-.417-1.608-.135-2.39.058-.192.093-.39.105-.59-.02-.238-.054-.475-.1-.71-.15-.845-.35-1.895.5-2.555.605-.48 1.41-.315 2.105-.17.327.086.663.13 1 .13.27-.078.528-.194.765-.345.582-.413 1.29-.607 2-.55.644.178 1.207.571 1.595 1.115.193.25.426.467.69.64.307.087.627.119.945.095.685-.066 1.371.119 1.93.52.625.5.7 1.34.765 2 .009.287.06.572.15.845.125.233.278.45.455.645.445.53 1.045 1.185.945 2.085-.152.648-.545 1.213-1.1 1.58-.287.216-.537.478-.74.775-.07.252-.102.513-.095.775.039.712-.164 1.417-.575 2-.434.415-.986.688-1.58.78-.356.058-.696.19-1 .385-.137.124-.315.193-.5.195-.211.001-.413-.088-.555-.245-.04-.05-.073-.106-.1-.165-1.788 3.418-2.517 7.29-2.095 11.125.022.21-.047.42-.19.576-.142.156-.343.245-.555.244l-.535-.015c-.728-.027-1.505-.081-2.205-.125-.875-.055-1.775-.13-2.585-.13-.387-.009-.704-.31-.735-.695-.23-2.947-1.112-5.807-2.585-8.37-.254.194-.478.425-.665.685-.322.498-.795.88-1.35 1.09-.174.05-.354.074-.535.075-.541-.033-1.07-.181-1.55-.435-.217-.114-.45-.197-.69-.245-.324.025-.643.092-.95.2-.625.185-1.27.435-2 .04s-.94-1.2-1.115-1.845c-.056-.278-.148-.547-.275-.8-.18-.21-.387-.394-.615-.55-.611-.358-1.073-.924-1.3-1.595-.084-.638.048-1.286.375-1.84.151-.279.253-.582.3-.895-.057-.298-.166-.584-.32-.845-.341-.544-.5-1.184-.45-1.825.176-.628.547-1.183 1.06-1.585.227-.19.418-.419.565-.675.06-.32.06-.65 0-.97-.125-.624-.036-1.272.25-1.84.477-.596 1.168-.982 1.925-1.075.244-.048.481-.127.705-.235.204-.148.394-.315.565-.5.515-.5 1.215-1.185 2.175-1 .71.14 1.1.77 1.445 1.325l.06.095c.034-.586.273-1.142.675-1.57.455-.36 1.027-.538 1.605-.5.26 0 .519-.043.765-.125.135-.227.233-.473.29-.73.086-.602.413-1.143.905-1.5zm1.257 11.12c.2.016.384.112.512.265 1.449 1.667 2.54 3.614 3.205 5.72.06.191.04.398-.054.574-.094.177-.254.308-.446.366-.072.024-.148.036-.225.035-.32.003-.608-.198-.715-.5-.598-1.922-1.585-3.7-2.9-5.225-.27-.312-.236-.784.075-1.055.151-.131.349-.196.548-.18z"/>
</svg>
