<svg xmlns="http://www.w3.org/2000/svg" width="20" height="25" viewBox="0 0 20 25">
    <g fill="none" fill-rule="evenodd">
        <g fill="#064545" fill-rule="nonzero" stroke="#064545" stroke-width=".2">
            <g>
                <path d="M262 14c-2.546 0-4.629 2.08-4.629 4.615v1.902h-3.6c-.437 0-.771.33-.771.76v11.92C253 35.3 254.723 37 256.857 37h10.286c2.134 0 3.857-1.699 3.857-3.804V21.278c0-.431-.334-.76-.771-.76h-3.6v-1.903c0-2.536-2.083-4.615-4.629-4.615zm-3.086 4.615c0-1.699 1.389-3.094 3.086-3.094 1.697 0 3.086 1.395 3.086 3.094v1.902h-6.172v-1.902zm10.543 3.449v11.158c0 1.268-1.028 2.282-2.314 2.282h-10.286c-1.286 0-2.314-1.014-2.314-2.282V22.064h2.828v1.319c0 .43.335.76.772.76s.771-.33.771-.76v-1.32h6.172v1.32c0 .43.334.76.771.76s.772-.33.772-.76v-1.32h2.828z" transform="translate(-252 -1636) translate(0 1623)"/>
            </g>
        </g>
    </g>
</svg>
