<?xml version="1.0" encoding="UTF-8"?>
<svg width="20px" height="20px" viewBox="0 0 20 20" version="1.1" xmlns="http://www.w3.org/2000/svg" xmlns:xlink="http://www.w3.org/1999/xlink">
    <title>Combined Shape 3</title>
    <g id="Page-1" stroke="none" stroke-width="1" fill="none" fill-rule="evenodd">
        <g id="3.-Webapp_Kategoriler" transform="translate(-182.000000, -805.000000)" fill="#064545" fill-rule="nonzero">
            <g id="Bottom-Bar-Copy-2" transform="translate(0.000000, 789.000000)">
                <g id="Combined-Shape-3" transform="translate(182.000000, 16.000000)">
                    <path d="M5.88888889,-1.0125234e-13 C7.54574314,-1.0125234e-13 8.88888889,1.34314575 8.88888889,3 L8.88888889,5.88888889 C8.88888889,7.54574314 7.54574314,8.88888889 5.88888889,8.88888889 L3,8.88888889 C1.34314575,8.88888889 0,7.54574314 0,5.88888889 L0,3 C0,1.34314575 1.34314575,-1.0125234e-13 3,-1.0125234e-13 L5.88888889,-1.0125234e-13 Z M5.88888889,1.75 L3,1.75 C2.35279131,1.75 1.8204661,2.24187466 1.75645361,2.87219476 L1.75,3 L1.75,5.88888889 C1.75,6.53609758 2.24187466,7.06842279 2.87219476,7.13243528 L3,7.13888889 L5.88888889,7.13888889 C6.53609758,7.13888889 7.06842279,6.64701422 7.13243528,6.01669413 L7.13888889,5.88888889 L7.13888889,3 C7.13888889,2.35279131 6.64701422,1.8204661 6.01669413,1.75645361 L5.88888889,1.75 Z" id="Rectangle"></path>
                    <path d="M5.88888889,10.8888889 C7.54574314,10.8888889 8.88888889,12.2320346 8.88888889,13.8888889 L8.88888889,16.7777778 C8.88888889,18.434632 7.54574314,19.7777778 5.88888889,19.7777778 L3,19.7777778 C1.34314575,19.7777778 0,18.434632 0,16.7777778 L0,13.8888889 C0,12.2320346 1.34314575,10.8888889 3,10.8888889 L5.88888889,10.8888889 Z M5.88888889,12.6388889 L3,12.6388889 C2.35279131,12.6388889 1.8204661,13.1307636 1.75645361,13.7610837 L1.75,13.8888889 L1.75,16.7777778 C1.75,17.4249865 2.24187466,17.9573117 2.87219476,18.0213242 L3,18.0277778 L5.88888889,18.0277778 C6.53609758,18.0277778 7.06842279,17.5359031 7.13243528,16.905583 L7.13888889,16.7777778 L7.13888889,13.8888889 C7.13888889,13.2416802 6.64701422,12.709355 6.01669413,12.6453425 L5.88888889,12.6388889 Z" id="Rectangle-Copy-3"></path>
                    <path d="M16.7777778,-1.0125234e-13 C18.434632,-1.0125234e-13 19.7777778,1.34314575 19.7777778,3 L19.7777778,5.88888889 C19.7777778,7.54574314 18.434632,8.88888889 16.7777778,8.88888889 L13.8888889,8.88888889 C12.2320346,8.88888889 10.8888889,7.54574314 10.8888889,5.88888889 L10.8888889,3 C10.8888889,1.34314575 12.2320346,-1.0125234e-13 13.8888889,-1.0125234e-13 L16.7777778,-1.0125234e-13 Z M16.7777778,1.75 L13.8888889,1.75 C13.2416802,1.75 12.709355,2.24187466 12.6453425,2.87219476 L12.6388889,3 L12.6388889,5.88888889 C12.6388889,6.53609758 13.1307636,7.06842279 13.7610837,7.13243528 L13.8888889,7.13888889 L16.7777778,7.13888889 C17.4249865,7.13888889 17.9573117,6.64701422 18.0213242,6.01669413 L18.0277778,5.88888889 L18.0277778,3 C18.0277778,2.35279131 17.5359031,1.8204661 16.905583,1.75645361 L16.7777778,1.75 Z" id="Rectangle-Copy"></path>
                    <path d="M16.7777778,10.8888889 C18.434632,10.8888889 19.7777778,12.2320346 19.7777778,13.8888889 L19.7777778,16.7777778 C19.7777778,18.434632 18.434632,19.7777778 16.7777778,19.7777778 L13.8888889,19.7777778 C12.2320346,19.7777778 10.8888889,18.434632 10.8888889,16.7777778 L10.8888889,13.8888889 C10.8888889,12.2320346 12.2320346,10.8888889 13.8888889,10.8888889 L16.7777778,10.8888889 Z M16.7777778,12.6388889 L13.8888889,12.6388889 C13.2416802,12.6388889 12.709355,13.1307636 12.6453425,13.7610837 L12.6388889,13.8888889 L12.6388889,16.7777778 C12.6388889,17.4249865 13.1307636,17.9573117 13.7610837,18.0213242 L13.8888889,18.0277778 L16.7777778,18.0277778 C17.4249865,18.0277778 17.9573117,17.5359031 18.0213242,16.905583 L18.0277778,16.7777778 L18.0277778,13.8888889 C18.0277778,13.2416802 17.5359031,12.709355 16.905583,12.6453425 L16.7777778,12.6388889 Z" id="Rectangle-Copy-2"></path>
                </g>
            </g>
        </g>
    </g>
</svg>