<svg xmlns="http://www.w3.org/2000/svg" width="22" height="20" viewBox="0 0 22 20">
    <g fill="none" fill-rule="evenodd">
        <g fill="#064545" fill-rule="nonzero">
            <g>
                <path d="M122.339 17.883c1.17-1.206 2.76-1.883 4.416-1.883 1.656 0 3.245.677 4.416 1.883 1.17 1.205 1.829 2.84 1.829 4.544 0 1.705-.658 3.34-1.83 4.545l-8.491 8.738c-.375.387-.983.387-1.358 0l-8.492-8.738c-2.439-2.51-2.439-6.58 0-9.09 2.439-2.509 6.393-2.509 8.832 0l.339.35.339-.349zm-.34 15.73l6.795-6.991 1.018-1.048c.811-.835 1.267-1.967 1.267-3.147 0-1.18-.456-2.312-1.267-3.146-.81-.835-1.91-1.304-3.057-1.304s-2.247.469-3.058 1.304l-1.018 1.048c-.375.386-.983.386-1.358 0l-1.019-1.048c-1.688-1.738-4.426-1.738-6.114 0-1.689 1.738-1.689 4.555 0 6.293l7.812 8.04z" transform="translate(-111 -2166) translate(0 2150)"/>
            </g>
        </g>
    </g>
</svg>
