<svg xmlns="http://www.w3.org/2000/svg" width="18" height="20" viewBox="0 0 18 20">
    <g fill="none" fill-rule="evenodd" opacity=".3">
        <g fill="#064545" fill-rule="nonzero">
            <g>
                <path d="M52.553 16.191l8.1 6.364c.219.172.347.437.347.718v10C61 34.779 59.791 36 58.3 36H45.7c-1.491 0-2.7-1.221-2.7-2.727v-10c0-.28.128-.546.347-.718l8.1-6.364c.325-.255.78-.255 1.106 0zM52 18.061l-7.2 5.656v9.556c0 .502.403.909.9.909l2.7-.001V26c0-.463.343-.846.787-.902l.113-.007h5.4c.497 0 .9.407.9.909v8.181h2.7c.497 0 .9-.406.9-.908v-9.556L52 18.061zm1.8 8.848h-3.6v7.272h3.6v-7.272z" transform="translate(-43 -2166) translate(0 2150)"/>
            </g>
        </g>
    </g>
</svg>
