<?xml version="1.0" encoding="UTF-8"?>
<svg width="19px" height="15px" viewBox="0 0 19 15" version="1.1" xmlns="http://www.w3.org/2000/svg" xmlns:xlink="http://www.w3.org/1999/xlink">
    <title>menu</title>
    <g id="Page-1" stroke="none" stroke-width="1" fill="none" opacity=".3">
        <g id="Responsive" transform="translate(-836.000000, -2517.000000)" fill="#064545">
            <g id="menu" transform="translate(836.000000, 2517.000000)">
                <path d="M17.3035714,0 C17.8657184,0 18.3214286,0.465586237 18.3214286,1.03991597 C18.3214286,1.6142457 17.8657184,2.07983193 17.3035714,2.07983193 L1.01785714,2.07983193 C0.455710165,2.07983193 0,1.6142457 0,1.03991597 C0,0.465586237 0.455710165,0 1.01785714,0 L17.3035714,0 Z M17.3035714,6.2394958 C17.8657184,6.2394958 18.3214286,6.70508209 18.3214286,7.27941176 C18.3214286,7.85374144 17.8657184,8.31932773 17.3035714,8.31932773 L1.01785714,8.31932773 C0.455710165,8.31932773 0,7.85374144 0,7.27941176 C0,6.70508209 0.455710165,6.2394958 1.01785714,6.2394958 L17.3035714,6.2394958 Z M17.3035714,12.4789916 C17.8657184,12.4789916 18.3214286,12.9445779 18.3214286,13.5189076 C18.3214286,14.0932372 17.8657184,14.5588235 17.3035714,14.5588235 L1.01785714,14.5588235 C0.455710165,14.5588235 0,14.0932372 0,13.5189076 C0,12.9445779 0.455710165,12.4789916 1.01785714,12.4789916 L17.3035714,12.4789916 Z" id="shape"></path>
            </g>
        </g>
    </g>
</svg>