<?xml version="1.0" encoding="utf-8"?>
<svg width="19px" height="15px" viewBox="0 0 19 15" version="1.1" xmlns:xlink="http://www.w3.org/1999/xlink" xmlns="http://www.w3.org/2000/svg">
  <desc>Created with Lunacy</desc>
  <path d="M0.274979 8.21388L6.1208 14.6422C6.49718 15.081 7.24114 15.12 7.6776 14.7382C8.11405 14.3563 8.15808 13.6278 7.75352 13.2137L3.52898 8.57101L17.9039 8.57101C18.5093 8.57101 19 8.09131 19 7.49962C19 6.90789 18.5093 6.42824 17.9039 6.42824L3.52898 6.42824L7.75352 1.78555C8.15808 1.37145 8.10334 0.644266 7.66689 0.262386C7.23044 -0.119458 6.49718 -0.0816733 6.1208 0.357026L0.274979 6.78536C-0.106702 7.30509 -0.0763021 7.77168 0.274979 8.21388Z" transform="matrix(-1 8.742278E-08 -8.742278E-08 -1 19 15)" id="Path" fill="#BBC3C3" stroke="none" />
</svg>