<?xml version="1.0" encoding="UTF-8"?>
<svg width="18px" height="20px" viewBox="0 0 18 20" version="1.1" xmlns="http://www.w3.org/2000/svg" xmlns:xlink="http://www.w3.org/1999/xlink">
    <title>Combined Shape</title>
    <g id="Page-1" stroke="none" stroke-width="1" fill="none" fill-rule="evenodd">
        <g id="Web" transform="translate(-200.000000, -2513.000000)" fill="#BBC3C3" fill-rule="nonzero">
            <path d="M213,2525 C215.761424,2525 218,2527.23858 218,2530 L218,2530 L218,2532 C218,2532.55228 217.552285,2533 217,2533 C216.447715,2533 216,2532.55228 216,2532 L216,2532 L216,2530 C216,2528.34315 214.656854,2527 213,2527 L213,2527 L205,2527 C203.343146,2527 202,2528.34315 202,2530 L202,2530 L202,2532 C202,2532.55228 201.552285,2533 201,2533 C200.447715,2533 200,2532.55228 200,2532 L200,2532 L200,2530 C200,2527.23858 202.238576,2525 205,2525 L205,2525 Z M209,2513 C211.761424,2513 214,2515.23858 214,2518 C214,2520.76142 211.761424,2523 209,2523 C206.238576,2523 204,2520.76142 204,2518 C204,2515.23858 206.238576,2513 209,2513 Z M209,2515 C207.343146,2515 206,2516.34315 206,2518 C206,2519.65685 207.343146,2521 209,2521 C210.656854,2521 212,2519.65685 212,2518 C212,2516.34315 210.656854,2515 209,2515 Z" id="Combined-Shape"></path>
        </g>
    </g>
</svg>