<?xml version="1.0" encoding="utf-8"?>
<svg width="16px" height="20px" viewBox="0 0 16 20" version="1.1" xmlns:xlink="http://www.w3.org/1999/xlink" xmlns="http://www.w3.org/2000/svg">
  <desc>Created with Lunacy</desc>
  <path d="M8 0C5.73714 0 3.88571 1.80816 3.88571 4.01323L3.88571 5.66703L0.685714 5.66703C0.297143 5.66703 0 5.95369 0 6.32856L0 16.6924C0 18.5226 1.53143 20 3.42857 20L12.5714 20C14.4686 20 16 18.5226 16 16.6924L16 6.32856C16 5.95369 15.7029 5.66703 15.3143 5.66703L12.1143 5.66703L12.1143 4.01323C12.1143 1.80816 10.2629 0 8 0ZM5.25714 4.01323C5.25714 2.53583 6.49143 1.32304 8 1.32304C9.50857 1.32304 10.7429 2.53583 10.7429 4.01323L10.7429 5.66703L5.25714 5.66703L5.25714 4.01323ZM14.6286 7.01213L14.6286 16.7144C14.6286 17.817 13.7143 18.699 12.5714 18.699L3.42857 18.699C2.28571 18.699 1.37143 17.817 1.37143 16.7144L1.37143 7.01213L3.88571 7.01213L3.88571 8.15877C3.88571 8.53363 4.18286 8.82029 4.57143 8.82029C4.96 8.82029 5.25714 8.53363 5.25714 8.15877L5.25714 7.01213L10.7429 7.01213L10.7429 8.15877C10.7429 8.53363 11.04 8.82029 11.4286 8.82029C11.8171 8.82029 12.1143 8.53363 12.1143 8.15877L12.1143 7.01213L14.6286 7.01213Z" id="Shape" fill="#BBC3C3" stroke="#BBC3C3" stroke-width="0.3" />
</svg>