<?xml version="1.0" encoding="utf-8"?>
<svg width="20px" height="20px" viewBox="0 0 20 20" version="1.1" xmlns:xlink="http://www.w3.org/1999/xlink" xmlns="http://www.w3.org/2000/svg">
  <desc>Created with Lunacy</desc>
  <path d="M15.4545 11.8201L15.4545 7.2739C15.4545 4.26095 13.0125 1.81847 10 1.81847C6.98754 1.81847 4.54545 4.26095 4.54545 7.2739L4.54545 11.8201C4.54545 12.4825 4.36837 13.1036 4.05897 13.6386L15.941 13.6386C15.6316 13.1036 15.4545 12.4825 15.4545 11.8201ZM19.0909 15.457L0.909091 15.457C-0.30303 15.457 -0.30303 13.6386 0.909091 13.6386C1.91324 13.6386 2.72727 12.8244 2.72727 11.8201L2.72727 7.2739C2.72727 3.25664 5.98338 -5.04728e-16 10 0C14.0166 5.04728e-16 17.2727 3.25664 17.2727 7.2739L17.2727 11.8201C17.2727 12.8244 18.0868 13.6386 19.0909 13.6386C20.303 13.6386 20.303 15.457 19.0909 15.457ZM12.3591 18.641C11.8712 19.4822 10.9724 20 10 20C9.02763 20 8.12881 19.4822 7.64091 18.641C7.28934 18.0348 7.72663 17.2755 8.42727 17.2755L11.5727 17.2755C12.2734 17.2755 12.7107 18.0348 12.3591 18.641Z" id="Shape" fill="#56696A" fill-opacity="0.4" stroke="none" />
</svg>