<?xml version="1.0" encoding="UTF-8"?>
<svg width="26px" height="30px" viewBox="0 0 26 30" version="1.1" xmlns="http://www.w3.org/2000/svg" xmlns:xlink="http://www.w3.org/1999/xlink">
    <title>Kalori</title>
    <g id="Page-1" stroke="none" stroke-width="1" fill="none" fill-rule="evenodd">
        <path d="M13.182226,0.11170369 C19.4092636,3.04727129 24.2775994,9.43201072 25.0367632,15.6754178 C25.7666127,21.6768053 22.0658847,27.5302626 16.0478862,29.9179505 C14.9808139,30.3412741 14.0736295,29.0294805 14.7915025,28.201479 L14.8716222,28.1176404 C15.5031988,27.5164557 16.1050533,25.7256139 16.1050533,24.0988849 C16.1050533,21.9044741 15.1091377,19.9427465 13.390487,18.696265 L13.1688808,18.5413961 L13.1525035,18.552763 C11.4177354,19.7144922 10.3157484,21.5885036 10.1533769,23.6372971 L10.1375519,23.905478 L10.1325267,24.1645507 C10.1325267,25.6509629 10.6115964,27.0601097 11.519292,28.243768 C12.144512,29.0585244 11.3344016,30.2297661 10.3433757,29.9563212 C4.25358031,28.2770787 -2.22044605e-13,22.7562544 -2.22044605e-13,16.5269443 C-2.22044605e-13,13.0787411 1.28986427,9.76846684 3.63126233,7.20679759 C4.20620889,6.5777071 5.28023601,6.82464522 5.51295858,7.64327465 C5.59677015,7.93798216 5.6921446,8.22884008 5.79889031,8.51538852 L5.97328201,8.95375738 L6.0003125,8.88751365 C7.18751382,5.97497614 8.94315771,3.30882288 11.1687897,1.04071105 L11.566407,0.644618805 L11.9324662,0.29539155 C12.271201,-0.0212976333 12.7659728,-0.0846856474 13.182226,0.11170369 Z M12.9662976,2.85191296 L12.8291222,2.99298259 C10.3679263,5.56106328 8.57614694,8.67188733 7.61420434,12.0559309 C7.28280021,13.2204615 5.68720294,13.4765422 4.99911016,12.4767188 C4.7094209,12.0557866 4.44344531,11.6213587 4.20198042,11.174891 L4.06627301,10.914334 L4.02606545,10.9840429 C3.13424817,12.5595257 2.6347562,14.3233564 2.57212091,16.1377688 L2.56540187,16.5272955 C2.56540187,20.2641499 4.44839117,23.7448267 7.50217242,25.8628638 L7.75854631,26.0359999 L7.73928156,25.9455515 C7.6481261,25.4797798 7.59309625,25.0055721 7.57473053,24.5257639 L7.56783917,24.1649019 C7.56783917,20.7709134 9.44481376,17.6424596 12.4644339,16.0005819 C12.8987904,15.764701 13.4453079,15.7684231 13.8732121,16.0006128 C16.8752792,17.6315559 18.6704551,20.662542 18.6704551,24.0988849 C18.6704551,24.4948689 18.6450373,24.8994701 18.5957123,25.304677 L18.5704497,25.4827919 L18.808928,25.2752551 C21.4245324,22.9328745 22.8218103,19.622368 22.5232446,16.290434 L22.4902712,15.9780313 C21.8742742,10.9088691 18.0584117,5.64838153 13.0353467,2.88850308 L12.9662976,2.85191296 Z" id="Kalori" fill="#064545" fill-rule="nonzero"></path>
    </g>
</svg>