<?xml version="1.0" encoding="utf-8"?>
<svg width="20px" height="20px" viewBox="0 0 20 20" version="1.1" xmlns:xlink="http://www.w3.org/1999/xlink" xmlns="http://www.w3.org/2000/svg">
  <desc>Created with Lunacy</desc>
  <path d="M4 1C4 0.44772 4.4477 0 5 0C5.5523 0 6 0.44772 6 1L6 5C6 5.5523 5.5523 6 5 6L1 6C0.44772 6 0 5.5523 0 5C0 4.4477 0.44771 4 1 4L4 4L4 1Z" transform="translate(6 6)" id="Combined-Shape" fill="#BBC3C3" stroke="none" />
  <path d="M20 10C20 15.5228 15.5228 20 10 20C4.47715 20 0 15.5228 0 10C0 4.47715 4.47715 0 10 0C15.5228 0 20 4.47715 20 10ZM18 10C18 14.4183 14.4183 18 10 18C5.58172 18 2 14.4183 2 10C2 5.58172 5.58172 2 10 2C14.4183 2 18 5.58172 18 10Z" id="Shape" fill="#000000" stroke="none" />
</svg>