<?xml version="1.0" encoding="utf-8"?>
<svg width="20px" height="20px" viewBox="0 0 20 20" version="1.1" xmlns:xlink="http://www.w3.org/1999/xlink" xmlns="http://www.w3.org/2000/svg">
  <desc>Created with Lunacy</desc>
  <defs>
    <path d="M20 10.0019C20 10.5041 19.593 10.9111 19.091 10.9111L10.0004 10.9111C9.49839 10.9111 9.0914 10.5041 9.0914 10.0019L9.0914 0.909263C9.0914 0.407091 9.49839 0 10.0004 0C12.6525 0 15.1959 1.05377 17.0712 2.92949C18.9465 4.8052 20 7.34922 20 10.0019ZM17.5355 13.1848C16.1037 16.5718 12.5889 18.5875 8.94318 18.1124C5.29748 17.6374 2.41632 14.7883 1.89978 11.1474C1.38324 7.5065 3.35819 3.96812 6.72783 2.49732C7.18798 2.29647 7.39822 1.76054 7.19742 1.30028C6.99662 0.840025 6.46081 0.629733 6.00066 0.830582C1.88222 2.62822 -0.531615 6.95291 0.0997126 11.4029C0.73104 15.8529 4.25246 19.3351 8.70831 19.9157C13.1642 20.4963 17.46 18.0327 19.2101 13.893C19.4056 13.4305 19.1893 12.897 18.7268 12.7015C18.2644 12.5059 17.7311 12.7223 17.5355 13.1848ZM10.9095 1.86917C12.7449 2.07437 14.4671 2.89656 15.7856 4.21538C17.1041 5.5342 17.9261 7.25681 18.1313 9.09263L10.9095 9.09263L10.9095 1.86917Z" id="path_1" />
    <clipPath id="mask_1">
      <use xlink:href="#path_1" />
    </clipPath>
  </defs>
  <path d="M20 10.0019C20 10.5041 19.593 10.9111 19.091 10.9111L10.0004 10.9111C9.49839 10.9111 9.0914 10.5041 9.0914 10.0019L9.0914 0.909263C9.0914 0.407091 9.49839 0 10.0004 0C12.6525 0 15.1959 1.05377 17.0712 2.92949C18.9465 4.8052 20 7.34922 20 10.0019ZM17.5355 13.1848C16.1037 16.5718 12.5889 18.5875 8.94318 18.1124C5.29748 17.6374 2.41632 14.7883 1.89978 11.1474C1.38324 7.5065 3.35819 3.96812 6.72783 2.49732C7.18798 2.29647 7.39822 1.76054 7.19742 1.30028C6.99662 0.840025 6.46081 0.629733 6.00066 0.830582C1.88222 2.62822 -0.531615 6.95291 0.0997126 11.4029C0.73104 15.8529 4.25246 19.3351 8.70831 19.9157C13.1642 20.4963 17.46 18.0327 19.2101 13.893C19.4056 13.4305 19.1893 12.897 18.7268 12.7015C18.2644 12.5059 17.7311 12.7223 17.5355 13.1848ZM10.9095 1.86917C12.7449 2.07437 14.4671 2.89656 15.7856 4.21538C17.1041 5.5342 17.9261 7.25681 18.1313 9.09263L10.9095 9.09263L10.9095 1.86917Z" id="Combined-Shape" fill="#BBC3C3" fill-rule="evenodd" stroke="none" />
</svg>