<?xml version="1.0" encoding="utf-8"?>
<svg width="20px" height="20px" viewBox="0 0 20 20" version="1.1" xmlns:xlink="http://www.w3.org/1999/xlink" xmlns="http://www.w3.org/2000/svg">
  <desc>Created with Lunacy</desc>
  <path d="M9.96673 0C8.15032 0 6.56973 1.09202 5.8153 2.67182C5.43534 2.56845 5.0357 2.50859 4.62561 2.50859C2.07816 2.50859 0 4.65416 0 7.28523C0 9.4067 1.35284 11.2024 3.21132 11.8213L3.21132 18.4364C3.21132 19.265 3.81643 20 4.62561 20L15.3744 20C16.1836 20 16.7887 19.265 16.7887 18.4364L16.7887 11.8213C18.6472 11.2024 20 9.4067 20 7.28523C20 4.65416 17.9218 2.50859 15.3744 2.50859C14.9422 2.50859 14.5172 2.57341 14.1182 2.689C13.3678 1.09812 11.7903 0 9.96673 0ZM9.96673 1.09965C11.5236 1.09965 12.8337 2.12828 13.3195 3.5567C13.4148 3.83856 13.7597 3.99777 14.0266 3.88316C14.4425 3.7066 14.8949 3.60825 15.3744 3.60825C17.3474 3.60825 18.9351 5.24825 18.9351 7.28522C18.9351 9.3222 17.3474 10.9536 15.3744 10.9536C15.0602 10.9536 14.7573 10.9118 14.4675 10.8333C14.7793 10.2534 14.9943 9.61367 15.0749 8.92612C15.1178 8.61368 14.848 8.29587 14.5424 8.29897C14.282 8.29738 14.0385 8.52137 14.01 8.78866C13.7593 10.8048 11.8581 12.4571 10 12.4571C8.21461 12.4571 6.259 10.9134 5.99002 8.78866C5.95843 8.50023 5.6732 8.26855 5.39432 8.30484C5.11545 8.34112 4.89475 8.63862 4.93345 8.92612C5.01402 9.61367 5.22066 10.2534 5.53245 10.8333C5.24266 10.9118 4.9398 10.9536 4.62561 10.9536C2.65261 10.9536 1.06489 9.3222 1.06489 7.28522C1.06489 5.24825 2.65261 3.60825 4.62561 3.60825C5.08343 3.60825 5.52311 3.69728 5.92345 3.85739C6.18677 3.96114 6.51795 3.80455 6.61395 3.53093C7.10659 2.11722 8.41964 1.09965 9.96673 1.09965ZM6.18134 11.7698C7.11805 12.8629 8.47895 13.5567 10 13.5567C11.5175 13.5567 12.8822 12.867 13.8187 11.7783C14.3068 11.9578 14.8315 12.0533 15.3744 12.0533C15.4917 12.0533 15.6087 12.0451 15.7238 12.036L15.7238 18.4363C15.7238 18.7294 15.5396 18.9003 15.3744 18.9003L4.62561 18.9003C4.46043 18.9003 4.2762 18.7294 4.2762 18.4363L4.2762 12.036C4.39334 12.0453 4.50625 12.0533 4.62561 12.0533C5.16952 12.0533 5.69241 11.9499 6.18134 11.7698Z" id="Shape" fill="#BBC3C3" stroke="none" />
</svg>