<?xml version="1.0" encoding="utf-8"?>
<svg id="customize" viewBox="0 0 18 14" version="1.1" xmlns:xlink="http://www.w3.org/1999/xlink" xmlns="http://www.w3.org/2000/svg">
  <desc>Created with Lunacy</desc>
  <defs>
    <path d="M2.25 4.5C3.49264 4.5 4.5 3.49264 4.5 2.25C4.5 1.00736 3.49264 0 2.25 0C1.00736 0 0 1.00736 0 2.25C0 3.49264 1.00736 4.5 2.25 4.5Z" transform="translate(0 5)" id="path_1" fill="#3ad0aa"/>
    <path d="M2.25 4.5C3.49264 4.5 4.5 3.49264 4.5 2.25C4.5 1.00736 3.49264 0 2.25 0C1.00736 0 0 1.00736 0 2.25C0 3.49264 1.00736 4.5 2.25 4.5Z" transform="translate(6.5 2)" id="path_2" fill="#3ad0aa"/>
    <path d="M2.25 4.5C3.49264 4.5 4.5 3.49264 4.5 2.25C4.5 1.00736 3.49264 0 2.25 0C1.00736 0 0 1.00736 0 2.25C0 3.49264 1.00736 4.5 2.25 4.5Z" transform="translate(13 8)" id="path_3" fill="#3ad0aa"/>
    <clipPath id="clip_1">
      <use xlink:href="#path_1" />
    </clipPath>
    <clipPath id="clip_2">
      <use xlink:href="#path_2" />
    </clipPath>
    <clipPath id="clip_3">
      <use xlink:href="#path_3" />
    </clipPath>
  </defs>
  <g id="Group-2">
    <path d="M0.75 0L0.75 0Q0.827038 0 0.901078 0.0139534Q0.975118 0.0279067 1.04375 0.0553591Q1.11238 0.0828116 1.17337 0.122869Q1.23436 0.162927 1.28571 0.214286Q1.33707 0.265645 1.37713 0.326632Q1.41719 0.38762 1.44464 0.456251Q1.47209 0.524882 1.48605 0.598922Q1.5 0.672962 1.5 0.75L1.5 13.25Q1.5 13.327 1.48605 13.4011Q1.47209 13.4751 1.44464 13.5438Q1.41719 13.6124 1.37713 13.6734Q1.33707 13.7344 1.28571 13.7857Q1.23436 13.8371 1.17337 13.8771Q1.11238 13.9172 1.04375 13.9446Q0.975118 13.9721 0.901078 13.986Q0.827038 14 0.75 14L0.75 14Q0.672962 14 0.598922 13.986Q0.524882 13.9721 0.456251 13.9446Q0.38762 13.9172 0.326632 13.8771Q0.265645 13.8371 0.214286 13.7857Q0.162927 13.7344 0.122869 13.6734Q0.0828116 13.6124 0.0553591 13.5438Q0.0279067 13.4751 0.0139534 13.4011Q0 13.327 0 13.25L0 0.75Q0 0.672962 0.0139534 0.598922Q0.0279067 0.524882 0.0553591 0.456251Q0.0828116 0.38762 0.122869 0.326632Q0.162927 0.265645 0.214286 0.214286Q0.265645 0.162927 0.326632 0.122869Q0.38762 0.0828116 0.456251 0.0553591Q0.524882 0.0279067 0.598922 0.0139534Q0.672962 0 0.75 0Z" transform="translate(1.5 0)" stroke="none" fill="#3ad0aa"/>
    <path d="M0.75 0L0.75 0Q0.827038 0 0.901078 0.0139534Q0.975118 0.0279067 1.04375 0.0553591Q1.11238 0.0828116 1.17337 0.122869Q1.23436 0.162927 1.28571 0.214286Q1.33707 0.265645 1.37713 0.326632Q1.41719 0.38762 1.44464 0.456251Q1.47209 0.524882 1.48605 0.598922Q1.5 0.672962 1.5 0.75L1.5 13.25Q1.5 13.327 1.48605 13.4011Q1.47209 13.4751 1.44464 13.5438Q1.41719 13.6124 1.37713 13.6734Q1.33707 13.7344 1.28571 13.7857Q1.23436 13.8371 1.17337 13.8771Q1.11238 13.9172 1.04375 13.9446Q0.975118 13.9721 0.901078 13.986Q0.827038 14 0.75 14L0.75 14Q0.672962 14 0.598922 13.986Q0.524882 13.9721 0.456251 13.9446Q0.38762 13.9172 0.326632 13.8771Q0.265645 13.8371 0.214286 13.7857Q0.162927 13.7344 0.122869 13.6734Q0.0828116 13.6124 0.0553591 13.5438Q0.0279067 13.4751 0.0139534 13.4011Q0 13.327 0 13.25L0 0.75Q0 0.672962 0.0139534 0.598922Q0.0279067 0.524882 0.0553591 0.456251Q0.0828116 0.38762 0.122869 0.326632Q0.162927 0.265645 0.214286 0.214286Q0.265645 0.162927 0.326632 0.122869Q0.38762 0.0828116 0.456251 0.0553591Q0.524882 0.0279067 0.598922 0.0139534Q0.672962 0 0.75 0Z" transform="translate(8 0)" stroke="none" fill="#3ad0aa"/>
    <path d="M0.75 0L0.75 0Q0.827038 0 0.901078 0.0139534Q0.975118 0.0279067 1.04375 0.0553591Q1.11238 0.0828116 1.17337 0.122869Q1.23436 0.162927 1.28571 0.214286Q1.33707 0.265645 1.37713 0.326632Q1.41719 0.38762 1.44464 0.456251Q1.47209 0.524882 1.48605 0.598922Q1.5 0.672962 1.5 0.75L1.5 13.25Q1.5 13.327 1.48605 13.4011Q1.47209 13.4751 1.44464 13.5438Q1.41719 13.6124 1.37713 13.6734Q1.33707 13.7344 1.28571 13.7857Q1.23436 13.8371 1.17337 13.8771Q1.11238 13.9172 1.04375 13.9446Q0.975118 13.9721 0.901078 13.986Q0.827038 14 0.75 14L0.75 14Q0.672962 14 0.598922 13.986Q0.524882 13.9721 0.456251 13.9446Q0.38762 13.9172 0.326632 13.8771Q0.265645 13.8371 0.214286 13.7857Q0.162927 13.7344 0.122869 13.6734Q0.0828116 13.6124 0.0553591 13.5438Q0.0279067 13.4751 0.0139534 13.4011Q0 13.327 0 13.25L0 0.75Q0 0.672962 0.0139534 0.598922Q0.0279067 0.524882 0.0553591 0.456251Q0.0828116 0.38762 0.122869 0.326632Q0.162927 0.265645 0.214286 0.214286Q0.265645 0.162927 0.326632 0.122869Q0.38762 0.0828116 0.456251 0.0553591Q0.524882 0.0279067 0.598922 0.0139534Q0.672962 0 0.75 0Z" transform="translate(14.5 0)" stroke="none" fill="#3ad0aa"/>
    <g id="Oval">
      <use stroke="none" fill="#FFFFFF" xlink:href="#path_1" />
      <g clip-path="url(#clip_1)">
        <use xlink:href="#path_1" fill="#3ad0aa" stroke-width="2.2" />
      </g>
    </g>
    <g id="Oval-Copy-3">
      <use stroke="none" fill="#FFFFFF" xlink:href="#path_2" />
      <g clip-path="url(#clip_2)">
        <use xlink:href="#path_2" fill="#3ad0aa" stroke-width="2.2" />
      </g>
    </g>
    <g id="Oval-Copy-4">
      <use stroke="none" fill="#FFFFFF" xlink:href="#path_3" />
      <g clip-path="url(#clip_3)">
        <use xlink:href="#path_3" fill="#3ad0aa" stroke-width="2.2" />
      </g>
    </g>
  </g>
</svg>