<?xml version="1.0" encoding="UTF-8"?>
<svg width="31px" height="30px" viewBox="0 0 31 30" version="1.1" xmlns="http://www.w3.org/2000/svg" xmlns:xlink="http://www.w3.org/1999/xlink">
    <title>Zorluk</title>
    <g id="Page-1" stroke="none" stroke-width="1" fill="none" fill-rule="evenodd">
        <path d="M15.0240401,0 C17.5437185,0 19.8295027,1.34310863 21.1333274,3.47003457 L21.2692313,3.70089332 L21.3348387,3.82258065 L21.5933036,3.76759309 C21.8110654,3.7259904 22.0306182,3.69446745 22.2509308,3.67334517 L22.5818407,3.64950237 L22.9131169,3.64150128 C26.8999483,3.64150128 30.1451613,6.97578147 30.1451613,11.0591928 C30.1451613,14.0169494 28.4245016,16.641092 25.8572451,17.8165878 L25.6141112,17.9225124 L25.4593548,17.9825806 L25.4602625,27.2464343 C25.4602625,28.624826 24.5076248,29.807915 23.2320151,29.9788242 L23.0709273,29.994857 L22.9131169,30 L7.23204444,30 C5.85267253,30 4.76790662,28.8292709 4.68944573,27.4111134 L4.6848989,27.2464343 L4.68483871,17.9825806 L4.53105016,17.9225124 C1.99125626,16.8715517 0.221753689,14.4258085 0.019389145,11.6018117 L0.00472443764,11.327375 L0,11.0591928 C0,6.97578147 3.24521302,3.64150128 7.23204444,3.64150128 C7.51217905,3.64150128 7.79263266,3.65915296 8.0724697,3.69375003 L8.35206658,3.7339694 L8.7116129,3.80225806 L8.78101427,3.67725523 C9.9747662,1.58777788 12.103662,0.201513928 14.4898228,0.0202431678 L14.755976,0.005086285 L15.0240401,0 Z M9.35516129,18.1296774 L9.07074589,18.2143633 C8.58897889,18.3461776 8.09862212,18.4271128 7.60386853,18.4542143 L7.20580645,18.4635484 L7.20617263,27.2463024 C7.20617263,27.3021117 7.21293506,27.3436008 7.2200008,27.3732964 L7.23564883,27.4295291 L7.23204444,27.4358475 L22.9131169,27.4358475 L22.9095125,27.4295291 L22.9251606,27.3732964 C22.9286934,27.3584486 22.9321505,27.3406524 22.9347243,27.3195921 L22.9389887,27.2463024 L22.9383871,18.4635484 L22.9131169,18.4644004 C22.2829489,18.4644004 21.6628351,18.3824596 21.0659495,18.2221687 L20.7880645,18.1412903 L20.6216763,18.3162561 C19.2191862,19.7267968 17.3554588,20.568009 15.3587013,20.6415685 L15.0725807,20.6468334 C12.9655355,20.6468334 10.9937269,19.7908072 9.52331513,18.3053187 L9.35516129,18.1296774 Z M15.0240401,2.56401394 C13.0224162,2.56401394 11.2573594,3.86220255 10.5891118,5.77031487 C10.3587754,6.423567 9.5900628,6.7852034 8.9465218,6.53288567 C8.40682217,6.31811957 7.82539177,6.20551851 7.23204444,6.20551851 C4.62413089,6.20551851 2.52127377,8.36640146 2.52127377,11.0591928 C2.52127377,13.7492556 4.62144315,15.9004129 7.23204444,15.9004129 C7.39570711,15.9004129 7.55784669,15.891889 7.71834111,15.8749617 L7.84451613,15.8583871 L7.82810063,15.8219991 C7.55344939,15.1932323 7.35899786,14.5323579 7.24936768,13.8493252 L7.20164242,13.5060084 C7.10958149,12.8255707 7.61555282,12.146896 8.29136732,12.059406 C8.92988047,11.9767517 9.55058332,12.4431668 9.68346003,13.0626747 L9.70254295,13.1805299 C10.0469039,15.8871794 12.5725292,18.0828129 15.0725807,18.0828129 C17.5177084,18.0828129 19.9762171,15.9400873 20.4100829,13.4023566 L20.441508,13.1900021 C20.5093389,12.5575217 21.0715156,12.0430577 21.6945184,12.0469085 C22.4393953,12.0393893 23.058089,12.7644952 22.9567332,13.4977423 C22.8623246,14.2991683 22.6473024,15.075301 22.3217386,15.8149292 L22.3006452,15.8583871 L22.4268202,15.8749617 C22.5070675,15.8834253 22.587726,15.8897881 22.6687805,15.894035 L22.9131169,15.9004129 C25.5237182,15.9004129 27.6238876,13.7492556 27.6238876,11.0591928 C27.6238876,8.36640146 25.5210305,6.20551851 22.9131169,6.20551851 C22.2948907,6.20551851 21.6981816,6.32863305 21.136975,6.56568628 C20.4861848,6.84369378 19.6860786,6.47614979 19.4574003,5.80330257 C18.7981336,3.87427943 17.0366056,2.56401394 15.0240401,2.56401394 Z" id="Zorluk" fill="#004646" fill-rule="nonzero"></path>
    </g>
</svg>