<?xml version="1.0" encoding="utf-8"?>
<svg width="20px" height="20px" viewBox="0 0 20 20" version="1.1" xmlns:xlink="http://www.w3.org/1999/xlink" xmlns="http://www.w3.org/2000/svg">
  <desc>Created with Lunacy</desc>
  <path d="M17 0L3 0C1.34315 0 0 1.34315 0 3L0 17C0 18.6569 1.34315 20 3 20L17 20C18.6569 20 20 18.6569 20 17L20 3C20 1.34315 18.6569 0 17 0ZM8 18L17 18C17.5523 18 18 17.5523 18 17L18 8L8 8L8 18ZM6 8L6 18L3 18C2.44772 18 2 17.5523 2 17L2 8L6 8ZM7 6L18 6L18 3C18 2.44772 17.5523 2 17 2L3 2C2.44772 2 2 2.44772 2 3L2 6L7 6Z" id="Combined-Shape" fill="#BBC3C3" fill-rule="evenodd" stroke="none" />
</svg>