<svg xmlns="http://www.w3.org/2000/svg" width="49" height="27" viewBox="0 0 49 27">
    <g fill="none" fill-rule="evenodd">
        <g stroke="#B8D7CE" stroke-width="1.029">
            <path d="M225.315 11.555c-1.065-1.748-2.146-3.525-3.617-4.977-1.17-1.155-2.567-2.058-3.947-2.962-2.793-1.807-5.585-3.614-8.376-5.406-.375-.563.615-1.022 1.29-1.007 3.873.163 7.716.978 11.303 2.414.976.385 1.951.83 2.987.993 1.396.236 2.822-.03 4.188-.356 3.978-.948 7.82-2.459 11.348-4.502 2.506-1.452 4.863-3.14 7.204-4.843 2.237-1.615 4.458-3.23 6.695-4.843 1.951-1.408 3.918-2.844 5.374-4.74 1.456-1.895 2.34-4.354 1.816-6.68-8.991-1.288-18.297-.266-26.793 2.918-2.957 1.111-5.81 2.473-8.796 3.496-4.443 1.525-9.141 2.28-13.84 2.606 4.264-.414 7.566-3.732 10.477-6.842 1.937-2.074 3.888-4.162 5.404-6.547.72-1.125 1.336-2.325 2.237-3.317.9-.992 2.026-1.733 2.972-2.666 2.071-2.074 3.047-4.932 3.962-7.702 1.321-3.984 2.582-8.575.406-12.174-4.474 2.755-8.961 5.51-13.434 8.25-1.261.784-2.537 1.555-3.903 2.162-.81.355-1.651.652-2.372 1.155-.705.504-1.26 1.17-1.8 1.852-1.982 2.488-3.843 5.08-5.585 7.746-1.305 1.984-2.551 4.057-3.227 6.323-1.44 4.814-.21 9.983-.765 14.96-.36 3.213-1.456 6.308-2.522 9.36-3.257 9.241-6.439 18.765-6.094 28.554.045 1.17.135 2.356.63 3.421 1.516 3.303 5.87 4.014 9.532 4.266 5.824.4 11.678.814 17.472.222 4.233-.43 11.842-1.185 8.54-6.783-2.882-4.798-5.853-9.553-8.766-14.351z" transform="translate(-228 -120) rotate(135 212.454 51.808)"/>
        </g>
    </g>
</svg>
