<?xml version="1.0" encoding="utf-8"?>
<svg width="15px" height="9px" viewBox="0 0 15 9" version="1.1" xmlns:xlink="http://www.w3.org/1999/xlink" xmlns="http://www.w3.org/2000/svg">
  <desc>Created with Lunacy</desc>
  <path d="M0.917856 8.46196L6.46582 14.2765Q6.53673 14.3508 6.61775 14.4088Q6.69878 14.4668 6.78727 14.5066Q6.87577 14.5464 6.96886 14.5666Q7.06195 14.5869 7.15661 14.587Q7.25126 14.5871 7.3444 14.567Q7.43753 14.547 7.52612 14.5074Q7.6147 14.4678 7.69585 14.41Q7.777 14.3522 7.84807 14.278L8.30808 13.798Q8.37915 13.7239 8.43461 13.6392Q8.49008 13.5544 8.52813 13.4619Q8.56617 13.3693 8.58557 13.272Q8.60496 13.1746 8.60507 13.0756Q8.60518 12.9767 8.586 12.8793Q8.56682 12.7819 8.52898 12.6892Q8.49113 12.5966 8.43586 12.5117Q8.38058 12.4269 8.30967 12.3526L3.67959 7.5L8.30967 2.64742Q8.38058 2.57311 8.43586 2.48825Q8.49113 2.40339 8.52898 2.31076Q8.56682 2.21813 8.586 2.12074Q8.60518 2.02334 8.60507 1.92436Q8.60496 1.82538 8.58557 1.72803Q8.56617 1.63067 8.52812 1.53813Q8.49008 1.44558 8.43461 1.36084Q8.37915 1.27611 8.30808 1.20195L7.84807 0.721972Q7.777 0.647812 7.69585 0.59Q7.6147 0.532187 7.52612 0.492603Q7.43753 0.453019 7.3444 0.432953Q7.25126 0.412887 7.15661 0.412991Q7.06195 0.413095 6.96886 0.433367Q6.87577 0.453639 6.78727 0.493419Q6.69878 0.533198 6.61775 0.591189Q6.53673 0.649181 6.46582 0.723497L0.917856 6.53804L0.690325 6.7765Q0.619416 6.85082 0.564111 6.9357Q0.508805 7.02059 0.470903 7.11328Q0.433001 7.20596 0.413736 7.30344Q0.394472 7.40091 0.394472 7.5Q0.394472 7.59909 0.413737 7.69657Q0.433001 7.79404 0.470904 7.88673Q0.508806 7.97942 0.564112 8.0643Q0.619417 8.14918 0.690326 8.2235L0.917856 8.46196Z" transform="matrix(-4.371139E-08 -1 1 -4.371139E-08 0 9)" id="Path" fill="#064545" stroke="none" />
</svg>