<?xml version="1.0" encoding="utf-8"?>
<svg width="17px" height="19px" viewBox="0 0 17 19" version="1.1" xmlns:xlink="http://www.w3.org/1999/xlink" xmlns="http://www.w3.org/2000/svg">
  <desc>Created with Lunacy</desc>
  <path d="M15.4851 6.70259C15.4822 6.70856 15.479 6.71422 15.4764 6.7202L13.0949 11.2853L3.81503 14.2225L1.56523 7.34054C1.56267 7.33142 1.5598 7.3223 1.55692 7.31286C1.55436 7.30531 1.55116 7.2965 1.54765 7.28738C0.770434 4.88215 2.12121 2.30075 4.56443 1.52753C7.00797 0.754304 9.63502 2.07677 10.4282 4.47666C10.4308 4.48578 10.4337 4.49522 10.4362 4.50277C10.4391 4.51189 10.4423 4.5207 10.4455 4.52951L10.8579 5.79126C10.9401 6.04261 11.168 6.22066 11.4356 6.24205C11.7045 6.26438 11.9587 6.1244 12.0805 5.88941L12.4536 5.17438C12.4545 5.17218 12.4558 5.16998 12.4568 5.16809C12.8877 4.34989 13.9137 4.02713 14.7472 4.44772C15.5823 4.86956 15.9132 5.88092 15.4851 6.70259L15.4851 6.70259ZM13.735 14.9435L11.7214 15.5808L10.9845 13.3259L13.1019 12.6559L13.8053 14.8079C13.8232 14.8623 13.7906 14.9262 13.735 14.9435L13.735 14.9435ZM9.72038 13.7258L10.4573 15.9806L8.33988 16.6507L7.60295 14.3961L9.72038 13.7258ZM4.92474 17.618L4.22138 15.466L6.33881 14.7963L7.07606 17.0508L5.06253 17.6881C5.00722 17.7058 4.94264 17.6727 4.92474 17.618L4.92474 17.618ZM15.3533 3.28537C14.0815 2.64332 12.5578 2.97394 11.6661 3.99945C10.6181 0.962866 7.27205 -0.70186 4.15776 0.283701C1.01245 1.27933 -0.723249 4.60689 0.288312 7.70199C0.289271 7.7045 0.29023 7.70702 0.291189 7.71017C0.292149 7.71331 0.293108 7.71614 0.294067 7.71897L3.66093 18.0184C3.90359 18.7608 4.71469 19.1707 5.4692 18.932L14.1413 16.1873C14.8958 15.9485 15.3121 15.1502 15.0694 14.4074L14.2564 11.9201L16.6664 7.29996C16.6699 7.29336 16.6731 7.28675 16.6766 7.28014C17.4235 5.82115 16.8333 4.03279 15.3533 3.28537L15.3533 3.28537Z" id="Fill-34" fill="#BBC3C3" stroke="none" />
</svg>