<svg xmlns="http://www.w3.org/2000/svg" xmlns:xlink="http://www.w3.org/1999/xlink" width="504" height="504" viewBox="0 0 504 504">
    <defs>
        <path id="s9765p956a" d="M0 0L35.568 0 35.568 41.15 0 41.15z"/>
    </defs>
    <g fill="none" fill-rule="evenodd">
        <g>
            <g>
                <path fill="#F2FF4A" d="M144.679 67l67.133 47.08 17.183-9.694s41.06-10.143 61.85-14.08c3.701-.7 3.81-.744 5.656 2.64 7.289 13.362 14.464 26.785 21.796 40.122.996 1.812.51 3.246-.034 4.895-2.522 7.647-4.872 15.358-6.317 23.281-1.546 8.482-2.757 17.026-4.114 25.542-.022.142-.037.285-.049.429-.525 6.038-.493 5.868 5.468 7.01 15.115 2.897 30.072 6.4 44.369 12.287 2.083.858 3.571 2.11 4.694 4.094 5.591 9.87 11.203 19.73 17.005 29.474 1.497 2.514 26.1 69.318 26.971 71.688 4.016 10.92 8.136 21.805 12.486 32.594 1.77 4.39 1.504 9.064 2.666 13.463 1.797 6.798-.953 11.305-5.31 16.37-13.693 15.922-30.997 26.789-48.891 37.042-9.747 5.586-20.002 10.104-30.117 14.922-4.294 2.046-8.755 3.676-13.41 4.694-13.332 2.914-40.403 6.147-40.403 6.147l-105.876-33.87s-14.625-16.243-22.075-24.236c-2.777-2.98-5.113-6.107-6.778-9.865-6.36-14.35-14.7-27.616-22.74-41.048-4.947-8.266-9.467-16.748-13.028-25.73-1.096-2.769-1.465-5.422-1.113-8.383C113.927 275.134 82 211.558 82 211.558l16.266-45.432L144.68 67z" transform="translate(-116 -916) matrix(-1 0 0 1 620 916) rotate(45 252 252)"/>
                <g transform="translate(-116 -916) matrix(-1 0 0 1 620 916) translate(234 48)">
                    <mask id="4qyfu8ntkb" fill="#fff">
                        <use xlink:href="#s9765p956a"/>
                    </mask>
                    <path fill="#004853" d="M13.35 33.107c.042.104.076.213.128.312.588 1.11 1.074 2.263 1.525 3.436.364.945.299 1.905.222 2.87-.02.247-.146.49-.25.723-.208.46-.58.68-1.083.7-.611.023-1.19-.086-1.74-.361-.946-.473-1.866-.993-2.691-1.656-1.652-1.326-3.163-2.796-4.456-4.482-.504-.658-.973-1.34-1.364-2.07-.564-1.056-1.135-2.11-1.685-3.173-.604-1.17-1.031-2.393-1.31-3.692-.457-2.134-.683-4.276-.641-6.455.018-.975.12-1.934.36-2.88.344-1.353.689-2.706 1.027-4.06.118-.473.286-.925.506-1.36.052-.101.116-.2.152-.306.473-1.404 1.372-2.548 2.253-3.705.33-.435.69-.834 1.123-1.17 1.037-.802 2.104-1.565 3.102-2.421.52-.447 1.133-.764 1.78-1.003.725-.267 1.419-.596 2.093-.971C13.179.95 14.004.647 14.887.5c.562-.094 1.119-.214 1.679-.322 2.044-.393 4.03-.095 5.988.51.605.186 1.158.482 1.675.84.257.179.512.37.729.593 1.255 1.287 1.65 2.556.803 4.448-.722 1.614-1.997 2.68-3.577 3.403-.413.189-.85.327-1.277.486-.478.177-.956.352-1.42.522-.02.22.125.188.219.19.627.02 1.255.047 1.882.038 1.179-.016 2.335.13 3.46.475 1.309.4 2.644.703 3.934 1.166 1.248.447 2.384 1.092 3.447 1.869 1.175.86 2.034 1.99 2.677 3.286.19.383.328.788.399 1.215.287 1.733-.412 3.235-1.932 4.127-.197.115-.4.22-.59.345-1.406.93-2.983 1.249-4.635 1.284-2.043.043-4.035-.268-5.98-.895-1.247-.403-2.498-.792-3.747-1.192-.19-.06-.372-.145-.58-.125-.035-.086-.114-.133-.175-.066-.073.08.03.12.086.16.026.05.042.113.08.149 1.19 1.115 2.155 2.426 3.214 3.655 1.092 1.268 1.817 2.75 2.529 4.24.22.46.393.945.59 1.417.388.93.375 1.884.169 2.85-.14.649-.451 1.16-1.065 1.46-.23.113-.452.245-.67.379-1.013.626-2.08.592-3.11.127-1.111-.502-2.195-1.071-3.19-1.801-1.033-.76-2.054-1.53-2.996-2.4-.03-.042-.052-.097-.093-.124-.06-.037-.143-.09-.193-.071-.094.035-.055.13-.016.194.04.064.099.117.149.175" mask="url(#4qyfu8ntkb)"/>
                </g>
            </g>
        </g>
    </g>
</svg>
