<?xml version="1.0" encoding="utf-8"?>
<svg width="19px" height="15px" viewBox="0 0 19 15" version="1.1" xmlns:xlink="http://www.w3.org/1999/xlink" xmlns="http://www.w3.org/2000/svg">
  <desc>Created with Lunacy</desc>
  <g id="menu">
    <path d="M17.3036 0C17.8657 0 18.3214 0.465586 18.3214 1.03992C18.3214 1.61425 17.8657 2.07983 17.3036 2.07983L1.01786 2.07983C0.45571 2.07983 0 1.61425 0 1.03992C0 0.465586 0.45571 0 1.01786 0L17.3036 0ZM17.3036 6.2395C17.8657 6.2395 18.3214 6.70508 18.3214 7.27941C18.3214 7.85374 17.8657 8.31933 17.3036 8.31933L1.01786 8.31933C0.45571 8.31933 0 7.85374 0 7.27941C0 6.70508 0.45571 6.2395 1.01786 6.2395L17.3036 6.2395ZM17.3036 12.479C17.8657 12.479 18.3214 12.9446 18.3214 13.5189C18.3214 14.0932 17.8657 14.5588 17.3036 14.5588L1.01786 14.5588C0.45571 14.5588 0 14.0932 0 13.5189C0 12.9446 0.45571 12.479 1.01786 12.479L17.3036 12.479Z" id="shape" fill="#BBC3C3" stroke="none" />
  </g>
</svg>