<?xml version="1.0" encoding="utf-8"?>
<svg width="23px" height="20px" viewBox="0 0 23 20" version="1.1" xmlns:xlink="http://www.w3.org/1999/xlink" xmlns="http://www.w3.org/2000/svg">
  <desc>Created with Lunacy</desc>
  <path d="M11.854 1.88306C13.0782 0.677387 14.7389 5.18741e-16 16.4707 0C18.2024 -1.0377e-15 19.8632 0.677387 21.0874 1.88306C22.3119 3.08784 23 4.72265 23 6.42732C23 8.132 22.3119 9.76681 21.0872 10.9718L12.2098 19.7105C11.8177 20.0965 11.1818 20.0965 10.7896 19.7105L1.91224 10.9718C-0.637413 8.46194 -0.637413 4.39271 1.91224 1.88289C4.46189 -0.626926 8.59569 -0.626926 11.1453 1.88289L11.4997 2.23174L11.854 1.88306ZM11.4997 17.6134L18.6025 10.6216L19.6672 9.57358C20.5151 8.73928 20.9915 7.60749 20.9915 6.42732C20.9915 5.24716 20.5151 4.11537 19.6672 3.28107C18.8193 2.44604 17.6696 1.97708 16.4707 1.97708C15.2718 1.97708 14.122 2.44604 13.2743 3.2809L12.2098 4.32876C11.8177 4.71481 11.1818 4.71481 10.7896 4.32876L9.72515 3.2809C7.95985 1.54318 5.09773 1.54318 3.33243 3.2809C1.56714 5.01862 1.56714 7.83603 3.33243 9.57375L11.4997 17.6134Z" id="Shape" fill="#56696A" fill-opacity="0.4" stroke="none" />
</svg>