<?xml version="1.0" encoding="utf-8"?>
<svg width="20px" height="20px" viewBox="0 0 20 20" version="1.1" xmlns:xlink="http://www.w3.org/1999/xlink" xmlns="http://www.w3.org/2000/svg">
  <desc>Created with Lunacy</desc>
  <g id="Instagram">
    <path d="M14.6086 0L4.75271 0Q4.50911 0 4.26928 0.0221506Q4.02945 0.0443012 3.79534 0.0884217Q3.56122 0.132542 3.33474 0.198273Q3.10825 0.264003 2.89124 0.350808Q2.67423 0.437612 2.46846 0.544783Q2.26269 0.651953 2.06985 0.778616Q1.87701 0.905278 1.69866 1.0504Q1.52031 1.19552 1.35792 1.35792Q1.19552 1.52031 1.0504 1.69866Q0.905278 1.87701 0.778616 2.06985Q0.651953 2.26269 0.544783 2.46846Q0.437612 2.67423 0.350808 2.89124Q0.264003 3.10825 0.198273 3.33474Q0.132542 3.56122 0.0884217 3.79534Q0.0443012 4.02945 0.0221506 4.26928Q0 4.50911 0 4.75271L0 14.6086Q0 14.8522 0.0221506 15.0921Q0.0443012 15.3319 0.0884217 15.566Q0.132542 15.8001 0.198273 16.0266Q0.264003 16.2531 0.350808 16.4701Q0.437612 16.6871 0.544783 16.8929Q0.651953 17.0987 0.778616 17.2915Q0.905278 17.4843 1.0504 17.6627Q1.19552 17.841 1.35792 18.0034Q1.52031 18.1658 1.69866 18.3109Q1.87701 18.4561 2.06985 18.5827Q2.26269 18.7094 2.46846 18.8166Q2.67423 18.9237 2.89124 19.0105Q3.10825 19.0973 3.33474 19.1631Q3.56122 19.2288 3.79534 19.2729Q4.02945 19.317 4.26928 19.3392Q4.50911 19.3613 4.75271 19.3613L14.6086 19.3613Q14.8522 19.3613 15.0921 19.3392Q15.3319 19.317 15.566 19.2729Q15.8001 19.2288 16.0266 19.1631Q16.2531 19.0973 16.4701 19.0105Q16.6871 18.9237 16.8929 18.8166Q17.0987 18.7094 17.2915 18.5827Q17.4843 18.4561 17.6627 18.3109Q17.841 18.1658 18.0034 18.0034Q18.1658 17.841 18.3109 17.6627Q18.4561 17.4843 18.5827 17.2915Q18.7094 17.0987 18.8166 16.8929Q18.9237 16.6871 19.0105 16.4701Q19.0973 16.2531 19.1631 16.0266Q19.2288 15.8001 19.2729 15.566Q19.317 15.3319 19.3392 15.0921Q19.3613 14.8522 19.3613 14.6086L19.3613 4.75271Q19.3613 4.50911 19.3392 4.26928Q19.317 4.02945 19.2729 3.79534Q19.2288 3.56122 19.1631 3.33474Q19.0973 3.10825 19.0105 2.89124Q18.9237 2.67423 18.8166 2.46846Q18.7094 2.26269 18.5827 2.06985Q18.4561 1.87701 18.3109 1.69866Q18.1658 1.52031 18.0034 1.35792Q17.841 1.19552 17.6627 1.0504Q17.4843 0.905278 17.2915 0.778616Q17.0987 0.651953 16.8929 0.544783Q16.6871 0.437612 16.4701 0.350808Q16.2531 0.264003 16.0266 0.198273Q15.8001 0.132542 15.566 0.0884217Q15.3319 0.0443012 15.0921 0.0221506Q14.8522 0 14.6086 0ZM14.2039 1.75254L5.15746 1.75254Q4.98295 1.75254 4.81113 1.7684Q4.63931 1.78427 4.47158 1.81588Q4.30386 1.84749 4.1416 1.89458Q3.97934 1.94167 3.82387 2.00386Q3.6684 2.06605 3.52098 2.14283Q3.37357 2.21961 3.23541 2.31035Q3.09726 2.40109 2.96949 2.50506Q2.84172 2.60903 2.72537 2.72537Q2.60903 2.84172 2.50506 2.96949Q2.40109 3.09726 2.31035 3.23541Q2.21961 3.37357 2.14283 3.52098Q2.06605 3.6684 2.00386 3.82387Q1.94167 3.97934 1.89458 4.1416Q1.84749 4.30386 1.81588 4.47158Q1.78427 4.63931 1.7684 4.81113Q1.75254 4.98295 1.75254 5.15746L1.75254 14.2039Q1.75254 14.3784 1.7684 14.5502Q1.78427 14.722 1.81588 14.8898Q1.84749 15.0575 1.89458 15.2197Q1.94167 15.382 2.00386 15.5375Q2.06605 15.6929 2.14283 15.8404Q2.21961 15.9878 2.31035 16.1259Q2.40109 16.2641 2.50506 16.3919Q2.60903 16.5196 2.72537 16.636Q2.84172 16.7523 2.96949 16.8563Q3.09726 16.9603 3.23541 17.051Q3.37357 17.1417 3.52098 17.2185Q3.6684 17.2953 3.82387 17.3575Q3.97934 17.4197 4.1416 17.4668Q4.30386 17.5139 4.47158 17.5455Q4.63931 17.5771 4.81113 17.5929Q4.98295 17.6088 5.15746 17.6088L14.2039 17.6088Q14.3784 17.6088 14.5502 17.5929Q14.722 17.5771 14.8898 17.5455Q15.0575 17.5139 15.2197 17.4668Q15.382 17.4197 15.5375 17.3575Q15.6929 17.2953 15.8404 17.2185Q15.9878 17.1417 16.1259 17.051Q16.2641 16.9603 16.3919 16.8563Q16.5196 16.7523 16.636 16.636Q16.7523 16.5196 16.8563 16.3919Q16.9603 16.2641 17.051 16.1259Q17.1417 15.9878 17.2185 15.8404Q17.2953 15.6929 17.3575 15.5375Q17.4197 15.382 17.4668 15.2197Q17.5139 15.0575 17.5455 14.8898Q17.5771 14.722 17.5929 14.5502Q17.6088 14.3784 17.6088 14.2039L17.6088 5.15746Q17.6088 4.98295 17.5929 4.81113Q17.5771 4.63931 17.5455 4.47158Q17.5139 4.30386 17.4668 4.1416Q17.4197 3.97934 17.3575 3.82387Q17.2953 3.6684 17.2185 3.52098Q17.1417 3.37357 17.051 3.23541Q16.9603 3.09726 16.8563 2.96949Q16.7523 2.84172 16.636 2.72537Q16.5196 2.60903 16.3919 2.50506Q16.2641 2.40109 16.1259 2.31035Q15.9878 2.21961 15.8404 2.14283Q15.6929 2.06605 15.5375 2.00386Q15.382 1.94167 15.2197 1.89458Q15.0575 1.84749 14.8898 1.81588Q14.722 1.78427 14.5502 1.7684Q14.3784 1.75254 14.2039 1.75254Z" id="Combined-Shape" fill="#BBC3C3" fill-rule="evenodd" stroke="none" />
    <path d="M9.84758 4.92379C9.84758 7.64312 7.64312 9.84758 4.92379 9.84758C2.20446 9.84758 0 7.64312 0 4.92379C0 2.20446 2.20446 0 4.92379 0C7.64312 0 9.84758 2.20446 9.84758 4.92379ZM8.09505 4.92379C8.09505 6.67523 6.67523 8.09505 4.92379 8.09505C3.17235 8.09505 1.75254 6.67523 1.75254 4.92379C1.75254 3.17235 3.17235 1.75254 4.92379 1.75254C6.67523 1.75254 8.09505 3.17235 8.09505 4.92379Z" transform="translate(4.756882 4.756882)" id="Combined-Shape" fill="#BBC3C3" fill-rule="evenodd" stroke="none" />
    <path d="M1.16836 2.33671C1.81362 2.33671 2.33671 1.81362 2.33671 1.16836C2.33671 0.523091 1.81362 0 1.16836 0C0.523091 0 0 0.523091 0 1.16836C0 1.81362 0.523091 2.33671 1.16836 2.33671Z" transform="translate(13.60301 3.338163)" id="Oval-22" fill="#BBC3C3" stroke="none" />
  </g>
</svg>