<svg xmlns="http://www.w3.org/2000/svg" width="55" height="55" viewBox="0 0 55 55">
    <g fill="none" fill-rule="evenodd">
        <g>
            <g transform="translate(-290 -699) translate(290 699)">
                <circle cx="27.5" cy="27.5" r="27.5" fill="#73B3B3"/>
                <path fill="#FFF" fill-rule="nonzero" d="M29.293 21.293c.39-.39 1.024-.39 1.414 0l6 6c.029.028.055.059.08.09l.017.022c.018.024.034.049.05.074l.021.037c.011.02.022.04.031.06l.023.053.021.06.014.045.016.065.009.053c.007.048.011.097.011.148l-.004-.086.003.054L37 28v.034l-.004.051c-.001.022-.004.043-.007.064l-.01.052c-.004.022-.009.043-.015.065l-.014.046-.021.06-.023.051-.03.061-.022.037c-.016.025-.032.05-.05.074-.03.04-.061.077-.097.112l.08-.09-.007.008-.073.082-6 6c-.39.39-1.024.39-1.414 0-.39-.39-.39-1.024 0-1.414L33.584 29H20c-.513 0-.936-.386-.993-.883L19 28c0-.552.448-1 1-1h13.586l-4.293-4.293c-.36-.36-.388-.928-.083-1.32z"/>
            </g>
        </g>
    </g>
</svg>
