<?xml version="1.0" encoding="UTF-8"?>
<svg width="22px" height="22px" viewBox="0 0 22 22" version="1.1" xmlns="http://www.w3.org/2000/svg" xmlns:xlink="http://www.w3.org/1999/xlink">
    <title>Combined Shape</title>
    <g id="Page-1" stroke="none" stroke-width="1" fill="none" fill-rule="evenodd">
        <g id="Web" transform="translate(-646.000000, -2512.000000)" fill="#BBC3C3" stroke="#AAB4B4" stroke-width="0.7">
            <path d="M656.966727,2513 C655.150318,2513 653.569727,2514.09202 652.815295,2515.67182 C652.435341,2515.56845 652.035705,2515.50859 651.625614,2515.50859 C649.078159,2515.50859 647,2517.65416 647,2520.28523 C647,2522.4067 648.352841,2524.20242 650.211318,2524.8213 L650.211318,2531.43644 C650.211318,2532.26499 650.816432,2533 651.625614,2533 L662.374386,2533 C663.183568,2533 663.788682,2532.26499 663.788682,2531.43644 L663.788682,2524.8213 C665.647159,2524.20242 667,2522.4067 667,2520.28523 C667,2517.65416 664.921841,2515.50859 662.374386,2515.50859 C661.942159,2515.50859 661.517182,2515.57341 661.118159,2515.689 C660.367773,2514.09812 658.79025,2513 656.966727,2513 Z M656.966727,2514.09965 C658.523636,2514.09965 659.833727,2515.12828 660.319477,2516.5567 C660.414795,2516.83856 660.759659,2516.99777 661.026614,2516.88316 C661.442523,2516.7066 661.894886,2516.60825 662.374386,2516.60825 C664.347386,2516.60825 665.935114,2518.24825 665.935114,2520.28523 C665.935114,2522.3222 664.347386,2523.95362 662.374386,2523.95362 C662.060205,2523.95362 661.757341,2523.91185 661.467545,2523.83333 C661.779341,2523.25344 661.994295,2522.61367 662.074886,2521.92612 C662.117818,2521.61368 661.848,2521.29587 661.542432,2521.29897 C661.282045,2521.29738 661.0385,2521.52137 661.009977,2521.78866 C660.75925,2523.80483 658.858136,2525.45705 657,2525.45705 C655.214614,2525.45705 653.259,2523.91337 652.990023,2521.78866 C652.958432,2521.50023 652.673205,2521.26855 652.394318,2521.30484 C652.115455,2521.34112 651.89475,2521.63862 651.933455,2521.92612 C652.014023,2522.61367 652.220659,2523.25344 652.532455,2523.83333 C652.242659,2523.91185 651.939795,2523.95362 651.625614,2523.95362 C649.652614,2523.95362 648.064886,2522.3222 648.064886,2520.28523 C648.064886,2518.24825 649.652614,2516.60825 651.625614,2516.60825 C652.083432,2516.60825 652.523114,2516.69728 652.923455,2516.85739 C653.186773,2516.96114 653.517955,2516.80455 653.613955,2516.53093 C654.106591,2515.11722 655.419636,2514.09965 656.966727,2514.09965 Z M653.181341,2524.76976 C654.118045,2525.8629 655.478955,2526.55671 657,2526.55671 C658.517455,2526.55671 659.882159,2525.86701 660.818659,2524.77835 C661.306773,2524.95778 661.831545,2525.05326 662.374386,2525.05326 C662.491682,2525.05326 662.608659,2525.04508 662.723795,2525.03599 L662.723795,2531.43635 C662.723795,2531.72944 662.539568,2531.90026 662.374386,2531.90026 L651.625614,2531.90026 C651.460432,2531.90026 651.276205,2531.72944 651.276205,2531.43635 L651.276205,2525.03599 C651.393341,2525.0453 651.50625,2525.05326 651.625614,2525.05326 C652.169523,2525.05326 652.692409,2524.94987 653.181341,2524.76976 Z" id="Combined-Shape"></path>
        </g>
    </g>
</svg>