<?xml version="1.0" encoding="UTF-8"?>
<svg width="112px" height="15px" viewBox="0 0 112 15" version="1.1" xmlns="http://www.w3.org/2000/svg" xmlns:xlink="http://www.w3.org/1999/xlink">
    <title>Logo</title>
    <defs>
        <polygon id="path-1" points="0.291581521 0.267876907 8.30916874 0.267876907 8.30916874 9.50307636 0.291581521 9.50307636"></polygon>
    </defs>
    <g id="Symbols" stroke="none" stroke-width="1" fill="none" fill-rule="evenodd">
        <g id="Header-Menu-Rps." transform="translate(-61.000000, -66.000000)">
            <g id="Logo" transform="translate(61.000000, 66.000000)">
                <path d="M5.67385664,11.7623252 C4.85305669,11.7623252 4.14671827,11.3942021 3.93662598,10.7727868 L3.93662598,8.87161766 C4.14671827,8.15383309 4.91028746,7.84404849 5.59742588,7.84404849 C6.68554889,7.90164848 7.43028731,8.63863306 7.43028731,9.78398683 C7.43028731,10.8311252 6.66671812,11.7039867 5.67385664,11.7623252 M5.73145664,5.0113102 C5.04394899,5.0113102 4.4520721,5.18521788 3.93662598,5.41820248 L3.93662598,4.17684871 L3.93662598,2.48872573 L3.93662598,0.277033555 L1.64591842,0.277033555 L1.01601077,0.277033555 L0.118780053,0.277033555 L0.118780053,3.22607953 L1.01601077,3.22607953 L1.01601077,4.17684871 L1.01601077,11.3159252 L0.118780053,11.3159252 L0.118780053,14.2653404 L1.62671842,14.2653404 C2.21859531,14.2653404 2.7528722,14.0515558 3.19225679,13.6442943 C4.01305674,14.1098943 4.60493363,14.4008481 5.71225664,14.4008481 C8.23188726,14.3425096 10.2936718,12.1891559 10.2936718,9.8028176 C10.2936718,7.18349468 8.09822573,5.0113102 5.73145664,5.0113102" id="Fill-1" fill="#064545"></path>
                <path d="M12.6077516,5.08822096 L11.137844,5.08822096 L11.137844,8.0380054 L11.9966747,8.0380054 L11.9966747,14.2654512 L14.8984592,14.2654512 L14.8984592,7.39739005 C14.8984592,6.11652859 13.8675669,5.08822096 12.6077516,5.08822096" id="Fill-3" fill="#064545"></path>
                <path d="M13.2950008,4.17666409 C14.11617,4.17666409 14.7649084,3.51684875 14.7649084,2.68275649 C14.7649084,1.829095 14.11617,1.17001812 13.2950008,1.17001812 C12.4742009,1.17001812 11.8058932,1.84866423 11.8058932,2.68275649 C11.8058932,3.51684875 12.4742009,4.17666409 13.2950008,4.17666409" id="Fill-5" fill="#064545"></path>
                <path d="M27.9551599,4.17666409 C28.7763291,4.17666409 29.4250675,3.51684875 29.4250675,2.68275649 C29.4250675,1.829095 28.7763291,1.17001812 27.9551599,1.17001812 C27.13436,1.17001812 26.4660523,1.84866423 26.4660523,2.68275649 C26.4660523,3.51684875 27.13436,4.17666409 27.9551599,4.17666409" id="Fill-7" fill="#064545"></path>
                <path d="M27.2678738,5.08822096 L25.7979662,5.08822096 L25.7979662,8.0380054 L26.6567969,8.0380054 L26.6567969,14.2654512 L29.5585814,14.2654512 L29.5585814,7.39739005 C29.5585814,6.11652859 28.5276891,5.08822096 27.2678738,5.08822096" id="Fill-9" fill="#064545"></path>
                <path d="M45.9542358,8.92962381 C45.9542358,6.81540855 44.6371897,5.04974712 42.3461129,5.04974712 C41.2963899,5.04974712 39.9409438,5.45774709 39.4254977,6.29110089 C38.7191593,5.49614709 37.8027286,5.04974712 36.580944,5.04974712 C35.6645133,5.04974712 34.8437134,5.37910094 34.1565749,5.9226086 C33.7171904,5.3990394 33.1064827,5.10808557 32.4001443,5.10808557 L30.9874674,5.10808557 L30.9874674,8.05676232 L31.7894366,8.05676232 L31.7894366,14.2653773 L34.6912211,14.2653773 L34.6912211,8.81405458 C34.8245134,8.11510078 35.454421,7.76580849 36.1607594,7.76580849 C36.9435286,7.76580849 37.382544,8.30894692 37.382544,9.00790073 L37.382544,14.2653773 L40.2843284,14.2653773 L40.2843284,8.83251612 C40.43719,8.07633155 41.1243284,7.76580849 41.811836,7.76580849 L41.8306668,7.76580849 C42.3845129,7.76580849 42.9187898,8.15350078 42.9760206,8.69700844 L42.9760206,11.7040236 C42.9760206,13.159162 43.8544205,14.2653773 45.2855589,14.2653773 L46.8702973,14.2653773 L46.8702973,11.3547314 L45.9542358,11.3547314 L45.9542358,8.92962381 Z" id="Fill-11" fill="#064545"></path>
                <path d="M52.2437862,10.0355068 L52.2437862,7.57163004 L54.0574476,7.57163004 L54.0574476,5.1081225 L52.2437862,5.1081225 L52.2437862,1.84892269 L49.323171,1.84892269 L49.323171,5.1081225 L48.1205864,5.1081225 L48.1205864,7.57163004 L49.323171,7.57163004 L49.323171,10.0355068 C49.323171,12.8490451 50.697817,14.2654143 53.4659399,14.2654143 L54.5728937,14.2654143 L54.5728937,11.2971683 L53.675663,11.2971683 C52.60674,11.2772298 52.2437862,11.0638145 52.2437862,10.0355068" id="Fill-13" fill="#064545"></path>
                <path d="M61.8210779,10.6369468 C61.6109856,11.2579929 61.0383087,11.6268544 59.9690165,11.6268544 C58.9004627,11.6268544 58.2129551,10.675716 58.2129551,9.64740838 C58.2129551,8.50316229 58.9192935,7.62993158 60.1407088,7.62993158 C61.190801,7.62993158 61.8210779,8.28974692 61.8210779,8.83251612 L61.8210779,10.6369468 Z M64.6272316,5.10808557 L61.9543702,5.10808557 L61.9543702,5.47620863 C61.3628626,5.08814711 60.5800934,4.99103943 59.9501857,4.99103943 C56.8002782,4.99103943 55.4064321,7.39768544 55.4064321,9.80285453 C55.4064321,12.3058698 57.5062474,14.400885 59.9501857,14.400885 C61.2864318,14.400885 61.6490164,14.1099312 62.4506163,13.6443312 C62.8900009,14.0515927 63.424647,14.2653773 64.0157855,14.2653773 L65.4668623,14.2653773 L65.4668623,11.3159621 L64.6272316,11.3159621 L64.6272316,5.10808557 Z" id="Fill-15" fill="#064545"></path>
                <path d="M69.6881298,5.9811686 C69.3824067,5.57316862 68.485176,5.10830711 68.0465299,5.10830711 L67.9124991,5.10830711 L66.4617915,5.10830711 L66.4617915,8.03778386 L67.3017914,8.03778386 L67.3017914,14.2655989 L70.2035759,14.2655989 L70.2035759,8.60012229 C70.2608066,8.4646146 70.3372374,8.32873769 70.4708989,8.19249154 C70.680622,7.9794454 71.0240066,7.7656608 71.5586527,7.7656608 C71.9216065,7.7656608 72.4754527,7.82399926 72.837668,8.23199923 L74.4796372,6.0003686 C73.8497295,5.37932248 72.9716988,5.03039943 71.9980373,5.03039943 C70.9291143,5.03039943 70.2227759,5.37932248 69.6881298,5.9811686" id="Fill-17" fill="#064545"></path>
                <path d="M77.3449785,4.17666409 C78.1657785,4.17666409 78.8148861,3.51684875 78.8148861,2.68275649 C78.8148861,1.829095 78.1657785,1.17001812 77.3449785,1.17001812 C76.5234401,1.17001812 75.8558709,1.84866423 75.8558709,2.68275649 C75.8558709,3.51684875 76.5234401,4.17666409 77.3449785,4.17666409" id="Fill-19" fill="#064545"></path>
                <path d="M76.6573601,5.08822096 L75.1878217,5.08822096 L75.1878217,8.0380054 L76.0470217,8.0380054 L76.0470217,14.2654512 L78.9484369,14.2654512 L78.9484369,7.39739005 C78.9484369,6.11652859 77.9175446,5.08822096 76.6573601,5.08822096" id="Fill-21" fill="#064545"></path>
                <path d="M81.6564121,4.89422713 L81.6564121,5.10838096 L80.3773968,5.10838096 L80.3773968,7.78567311 L81.6564121,7.78567311 L81.6564121,11.3158883 L80.9308737,11.3158883 L80.9308737,14.2653035 L82.267489,14.2653035 C83.5465043,14.206965 84.5578273,13.1590882 84.5578273,11.9177344 L84.5578273,7.78567311 L87.0781964,7.78567311 L87.0781964,5.10838096 L84.5578273,5.10838096 C84.5578273,4.52610407 84.6918581,3.26518107 86.0092734,3.26518107 L87.0781964,3.26518107 L87.0781964,0.296935092 L86.0092734,0.296935092 C83.5081043,0.296935092 81.7520429,2.15859652 81.6564121,4.89422713" id="Fill-23" fill="#064545"></path>
                <path d="M91.64547,2.50792573 C91.5886084,1.26694119 90.5761777,0.296972015 89.3543932,0.296972015 L87.9232548,0.296972015 L87.9232548,3.24527953 L88.7244855,3.24527953 L88.7244855,11.9369713 C88.7817163,13.2370328 89.8126086,14.2653404 91.0343931,14.2653404 L92.5611622,14.2653404 L92.5611622,11.3159252 L91.64547,11.3159252 L91.64547,2.50792573 Z" id="Fill-25" fill="#064545"></path>
                <path d="M96.2659128,8.48359307 C96.6288666,7.88248541 97.0874512,7.39768544 97.9459127,7.39768544 C98.7663434,7.39768544 99.3585895,7.86254695 99.5878818,8.48359307 L96.2659128,8.48359307 Z M97.9654819,4.97183943 C95.5023436,4.97183943 93.4597591,7.06722392 93.4597591,9.64740838 C93.4597591,12.2279621 95.5023436,14.3425466 97.9654819,14.3425466 C99.3969895,14.3425466 100.485113,13.7990389 101.400805,12.8877774 L100.389482,11.451839 C97.1251127,12.5968236 96.3615435,10.9279006 96.1514513,10.5597776 L102.374835,10.5597776 L102.374835,9.64740838 C102.279574,7.08642392 100.580374,4.97183943 97.9654819,4.97183943 L97.9654819,4.97183943 Z" id="Fill-27" fill="#064545"></path>
                <g id="Group-31" transform="translate(102.946146, 4.762449)">
                    <mask id="mask-2" fill="white">
                        <use xlink:href="#path-1"></use>
                    </mask>
                    <g id="Clip-30"></g>
                    <path d="M5.82782734,0.267876907 C4.75890433,0.267876907 4.05256591,0.616799963 3.51791979,1.21864608 C3.21256596,0.810646106 2.31533525,0.345784595 1.87595066,0.345784595 L1.74302759,0.345784595 L0.291581521,0.345784595 L0.291581521,3.27563057 L1.13158147,3.27563057 L1.13158147,9.50307636 L4.03336591,9.50307636 L4.03336591,3.83759977 C4.09059668,3.70209209 4.16702744,3.5665844 4.30068897,3.42996903 C4.51041204,3.21692289 4.85379663,3.00313828 5.38881199,3.00313828 C5.75139658,3.00313828 6.3052427,3.06147674 6.66745806,3.46947672 L8.3094272,1.23784608 C7.67951954,0.616799963 6.80148883,0.267876907 5.82782734,0.267876907" id="Fill-29" fill="#064545" mask="url(#mask-2)"></path>
                </g>
                <polygon id="Fill-32" fill="#064545" points="18.6910128 5.10823327 16.5911975 5.10823327 16.5911975 7.4166639 16.5911975 8.24004846 16.5911975 8.42577153 19.1488589 8.42577153 19.1488589 8.24004846 19.1488589 7.70761773 21.1534126 7.70761773 16.5911975 11.9367867 16.5911975 14.265525 22.3342126 14.265525 22.7761818 14.265525 24.0167971 14.265525 24.0167971 11.9367867 24.0167971 11.7237406 22.432428 11.7237406 22.3342126 11.7237406 20.2945819 11.7237406 24.0167971 8.1348177 24.0167971 5.10823327 19.1488589 5.10823327"></polygon>
            </g>
        </g>
    </g>
</svg>