<svg xmlns="http://www.w3.org/2000/svg" xmlns:xlink="http://www.w3.org/1999/xlink" width="150" height="20" viewBox="0 0 150 20">
    <defs>
        <path id="l5k94cq82a" d="M0.389 0.357L11.079 0.357 11.079 12.671 0.389 12.671z"/>
    </defs>
    <g fill="none" fill-rule="evenodd">
        <g>
            <g>
                <path fill="#064545" d="M7.565 15.683c-1.094 0-2.036-.49-2.316-1.32V11.83c.28-.957 1.298-1.37 2.214-1.37 1.451.077 2.444 1.06 2.444 2.586 0 1.397-1.018 2.56-2.342 2.638m.077-9.001c-.917 0-1.706.232-2.393.542V.37H.158v3.932h1.197v10.787H.158v3.932H2.17c.79 0 1.501-.285 2.087-.828 1.095.621 1.884 1.01 3.36 1.01 3.36-.079 6.109-2.95 6.109-6.132 0-3.492-2.927-6.388-6.083-6.388M16.81 6.784h-1.96v3.933h1.146v8.304h3.869V9.863c0-1.708-1.375-3.079-3.055-3.079M17.727 5.569c1.095 0 1.96-.88 1.96-1.992 0-1.138-.865-2.017-1.96-2.017s-1.986.905-1.986 2.017c0 1.112.891 1.992 1.986 1.992M37.274 5.569c1.094 0 1.96-.88 1.96-1.992 0-1.138-.866-2.017-1.96-2.017-1.095 0-1.986.905-1.986 2.017 0 1.112.891 1.992 1.986 1.992M36.357 6.784h-1.96v3.933h1.145v8.304h3.87V9.863c0-1.708-1.375-3.079-3.055-3.079M61.272 11.906c0-2.819-1.756-5.173-4.81-5.173-1.4 0-3.207.544-3.895 1.655-.941-1.06-2.163-1.655-3.792-1.655-1.222 0-2.317.44-3.233 1.164-.586-.698-1.4-1.086-2.342-1.086h-1.883v3.931h1.069v8.279h3.869v-7.269c.178-.932 1.018-1.398 1.96-1.398 1.043 0 1.628.725 1.628 1.657v7.01h3.87v-7.244c.203-1.009 1.12-1.423 2.036-1.423h.025c.739 0 1.451.517 1.527 1.242v4.01c0 1.94 1.172 3.415 3.08 3.415h2.113V15.14h-1.222v-3.234zM69.658 13.38v-3.284h2.419V6.81h-2.419V2.465h-3.894v4.346h-1.603v3.285h1.603v3.285c0 3.751 1.833 5.64 5.524 5.64h1.476v-3.958h-1.196c-1.426-.027-1.91-.311-1.91-1.682M82.428 14.183c-.28.828-1.044 1.32-2.47 1.32-1.424 0-2.34-1.269-2.34-2.64 0-1.525.941-2.69 2.57-2.69 1.4 0 2.24.88 2.24 1.604v2.406zM86.17 6.81h-3.564v.49c-.789-.517-1.833-.646-2.672-.646-4.2 0-6.059 3.209-6.059 6.415 0 3.338 2.8 6.131 6.059 6.131 1.781 0 2.265-.388 3.333-1.009.586.543 1.3.829 2.087.829h1.935v-3.933h-1.12V6.81zM92.918 7.975c-.408-.544-1.604-1.164-2.19-1.164h-2.112v3.906h1.12v8.304h3.869v-7.554c.076-.18.178-.362.356-.544.28-.284.738-.569 1.45-.569.484 0 1.223.078 1.706.622L99.307 8c-.84-.828-2.011-1.293-3.31-1.293-1.425 0-2.367.465-3.08 1.268M103.127 5.569c1.094 0 1.96-.88 1.96-1.992 0-1.138-.866-2.017-1.96-2.017-1.096 0-1.986.905-1.986 2.017 0 1.112.89 1.992 1.986 1.992M102.21 6.784h-1.96v3.933h1.146v8.304h3.869V9.863c0-1.708-1.375-3.079-3.055-3.079M108.875 6.526v.285h-1.705v3.57h1.705v4.707h-.967v3.932h1.782c1.705-.077 3.054-1.475 3.054-3.13v-5.51h3.36V6.812h-3.36c0-.776.178-2.457 1.935-2.457h1.425V.396h-1.425c-3.335 0-5.676 2.482-5.804 6.13M122.194 3.344c-.076-1.655-1.426-2.948-3.055-2.948h-1.908v3.931h1.068v11.589c.077 1.733 1.451 3.104 3.08 3.104h2.036v-3.932h-1.221V3.344zM128.355 11.311c.483-.801 1.095-1.447 2.24-1.447 1.093 0 1.883.62 2.189 1.447h-4.43zm2.266-4.682c-3.285 0-6.008 2.794-6.008 6.234s2.723 6.26 6.008 6.26c1.908 0 3.36-.724 4.58-1.94l-1.348-1.914c-4.353 1.527-5.37-.698-5.651-1.19h8.298v-1.216c-.127-3.414-2.393-6.234-5.88-6.234z" transform="translate(-113 -60) translate(113 60)"/>
                <g transform="translate(-113 -60) translate(113 60) translate(137.262 6.35)">
                    <mask id="z0124pvm4b" fill="#fff">
                        <use xlink:href="#l5k94cq82a"/>
                    </mask>
                    <path fill="#064545" d="M7.77.357c-1.425 0-2.367.465-3.08 1.268C4.284 1.08 3.088.46 2.502.46H.39v3.907h1.12v8.303h3.869V5.117c.076-.18.178-.362.356-.544.28-.284.738-.569 1.451-.569.484 0 1.222.078 1.705.622l2.19-2.976C10.24.822 9.068.357 7.77.357" mask="url(#z0124pvm4b)"/>
                </g>
                <path fill="#064545" d="M24.921 6.811L22.122 6.811 22.122 9.889 22.122 10.987 22.122 11.234 25.532 11.234 25.532 10.987 25.532 10.277 28.205 10.277 22.122 15.916 22.122 19.021 29.779 19.021 30.368 19.021 32.022 19.021 32.022 15.916 32.022 15.632 29.91 15.632 29.779 15.632 27.059 15.632 32.022 10.846 32.022 6.811 25.532 6.811z" transform="translate(-113 -60) translate(113 60)"/>
            </g>
        </g>
    </g>
</svg>
