<?xml version="1.0" encoding="utf-8"?>
<svg width="15px" height="2px" viewBox="0 0 15 2" version="1.1" xmlns:xlink="http://www.w3.org/1999/xlink" xmlns="http://www.w3.org/2000/svg">
  <desc>Created with Lunacy</desc>
  <path d="M1 0L14 0Q14.1027 0 14.2014 0.0186045Q14.3002 0.037209 14.3917 0.0738122Q14.4832 0.110415 14.5645 0.163826Q14.6458 0.217236 14.7143 0.285714Q14.7828 0.354193 14.8362 0.43551Q14.8896 0.516827 14.9262 0.608335Q14.9628 0.699843 14.9814 0.798563Q15 0.897283 15 1L15 1Q15 1.10272 14.9814 1.20144Q14.9628 1.30016 14.9262 1.39167Q14.8896 1.48317 14.8362 1.56449Q14.7828 1.64581 14.7143 1.71429Q14.6458 1.78276 14.5645 1.83617Q14.4832 1.88958 14.3917 1.92619Q14.3002 1.96279 14.2014 1.9814Q14.1027 2 14 2L1 2Q0.897283 2 0.798563 1.9814Q0.699843 1.96279 0.608335 1.92619Q0.516827 1.88958 0.43551 1.83617Q0.354193 1.78276 0.285714 1.71429Q0.217236 1.64581 0.163826 1.56449Q0.110415 1.48317 0.0738122 1.39167Q0.037209 1.30016 0.0186045 1.20144Q0 1.10272 0 1L0 1Q0 0.897283 0.0186045 0.798563Q0.037209 0.699843 0.0738122 0.608335Q0.110415 0.516827 0.163826 0.43551Q0.217236 0.354193 0.285714 0.285714Q0.354193 0.217236 0.43551 0.163826Q0.516827 0.110415 0.608335 0.0738122Q0.699843 0.037209 0.798563 0.0186045Q0.897283 0 1 0Z" id="Rectangle" fill="#BBC3C3" stroke="none" />
</svg>