<svg xmlns="http://www.w3.org/2000/svg" xmlns:xlink="http://www.w3.org/1999/xlink" width="63" height="63" viewBox="0 0 63 63">
    <defs>
        <circle id="ecdyhbs4ca" cx="31" cy="31" r="31"/>
    </defs>
    <g fill="none" fill-rule="evenodd">
        <g>
            <g>
                <g>
                    <g transform="translate(-35 -139) translate(15 120) translate(20 19) translate(.12 .12)">
                        <mask id="5txe4ihb0b" fill="#fff">
                            <use xlink:href="#ecdyhbs4ca"/>
                        </mask>
                        <use fill="#BAE4EE" xlink:href="#ecdyhbs4ca"/>
                        <path fill="#FFF" d="M-6.598 34.238l11.847 8.27 3.032-1.702s7.246-1.782 10.915-2.474c.653-.123.672-.13.998.464 1.286 2.347 2.552 4.705 3.846 7.048.176.319.09.57-.006.86-.445 1.344-.86 2.698-1.114 4.09-.273 1.49-.487 2.991-.727 4.487l-.008.076c-.093 1.06-.087 1.03.965 1.231 2.667.509 5.307 1.124 7.83 2.159.367.15.63.37.828.719.987 1.734 1.977 3.466 3 5.178.265.441 4.607 12.177 4.76 12.594.71 1.918 1.436 3.83 2.204 5.726.312.77.265 1.592.47 2.365.317 1.194-.168 1.986-.937 2.876-2.416 2.797-5.47 4.706-8.628 6.507-1.72.981-3.53 1.775-5.314 2.621-.758.36-1.545.646-2.367.825-2.352.512-7.13 1.08-7.13 1.08l-18.684-5.95s-2.58-2.854-3.895-4.258c-.49-.524-.903-1.073-1.196-1.733-1.123-2.521-2.595-4.852-4.013-7.211-.873-1.452-1.671-2.942-2.3-4.52-.193-.487-.258-.953-.196-1.473.393-3.291-5.241-14.46-5.241-14.46l2.87-7.981 8.19-17.414z" mask="url(#5txe4ihb0b)" transform="rotate(-30 12.34 66.738)"/>
                        <path fill="#FFF" fill-rule="nonzero" d="M28.5 20c1.92 0 3.66.721 4.984 1.894-.39.941-.609 1.969-.609 3.047 0 4.313 3.444 7.822 7.761 8.011-.74 1.818-2.531 3.107-4.636 3.107-.435 0-.849-.073-1.25-.176V41h-12.5v-5.117c-.401.103-.815.176-1.25.176-2.761 0-5-2.213-5-4.941 0-2.73 2.239-4.942 5-4.942.038 0 .074.01.11.012.591-3.51 3.669-6.188 7.39-6.188zm13.75 0v3.706H46v2.47h-3.75v3.706h-2.5v-3.706H36v-2.47h3.75V20h2.5zM28.5 22.47c-2.761 0-5 2.213-5 4.942h1.25c0-2.043 1.683-3.706 3.75-3.706z" mask="url(#5txe4ihb0b)"/>
                    </g>
                </g>
            </g>
        </g>
    </g>
</svg>
