<?xml version="1.0" encoding="UTF-8"?>
<svg width="20px" height="20px" viewBox="0 0 20 20" version="1.1" xmlns="http://www.w3.org/2000/svg" xmlns:xlink="http://www.w3.org/1999/xlink">
    <title>Shape</title>
    <g id="Page-1" stroke="none" stroke-width="1" fill="none" fill-rule="evenodd" opacity="0.400000006">
        <g id="Web" transform="translate(-248.000000, -2513.000000)" fill="#56696A" fill-rule="nonzero">
            <path d="M263.454545,2524.82009 L263.454545,2520.2739 C263.454545,2517.26095 261.012462,2514.81847 258,2514.81847 C254.987538,2514.81847 252.545455,2517.26095 252.545455,2520.2739 L252.545455,2524.82009 C252.545455,2525.48253 252.368374,2526.10361 252.058974,2526.63856 L263.941026,2526.63856 C263.631626,2526.10361 263.454545,2525.48253 263.454545,2524.82009 Z M267.090909,2528.45704 L248.909091,2528.45704 C247.69697,2528.45704 247.69697,2526.63856 248.909091,2526.63856 C249.913245,2526.63856 250.727273,2525.8244 250.727273,2524.82009 L250.727273,2520.2739 C250.727273,2516.25664 253.983384,2513 258,2513 C262.016616,2513 265.272727,2516.25664 265.272727,2520.2739 L265.272727,2524.82009 C265.272727,2525.8244 266.086755,2526.63856 267.090909,2526.63856 C268.30303,2526.63856 268.30303,2528.45704 267.090909,2528.45704 Z M260.359091,2531.64098 C259.871185,2532.48221 258.972366,2533 258,2533 C257.027634,2533 256.128815,2532.48221 255.640909,2531.64098 C255.289345,2531.03482 255.726627,2530.27551 256.427273,2530.27551 L259.572727,2530.27551 C260.273373,2530.27551 260.710655,2531.03482 260.359091,2531.64098 Z" id="Shape"></path>
        </g>
    </g>
</svg>