<svg xmlns="http://www.w3.org/2000/svg" width="36" height="35" viewBox="0 0 36 35">
    <g fill="none" fill-rule="evenodd">
        <g fill="#EE6621" fill-rule="nonzero">
            <g>
                <path d="M299.732 104.325c.02.17.089.299.141.426.219.518.396 1.054.568 1.593.226.707.456 1.413.678 2.12.08.252.15.51.222.765.272.947.578 1.885.911 2.812.17.468.29.954.43 1.432.057.193.06.392.036.594-.014.106-.005.218-.005.335-.079.083-.147.199-.245.247-.255.12-.52.228-.812.105-.089-.038-.182-.068-.277-.084-.148-.024-.263-.098-.368-.201-.131-.131-.255-.272-.402-.386-.324-.255-.579-.575-.817-.906-.22-.305-.42-.621-.629-.931-.113-.165-.224-.33-.35-.483-.23-.274-.4-.58-.53-.912-.088-.229-.214-.434-.348-.637-.373-.565-.672-1.17-.909-1.805-.071-.195-.095-.408-.193-.596-.044-.088-.097-.17-.14-.243-.118.004-.15.079-.183.148-.195.399-.392.794-.577 1.196-.21.45-.425.9-.679 1.329-.24.397-.46.805-.688 1.209-.393.694-.852 1.343-1.333 1.975-.304.404-.626.798-.948 1.188-.275.335-.594.62-.957.854-.1.063-.201.13-.309.184-.125.065-.26.113-.393.171-.04-.048-.065-.11-.103-.119-.041-.011-.108.013-.143.042-.05.042-.079.107-.11.149l-.4-.104c-.029-.166-.07-.337-.197-.476l-.133.102c-.117-.045-.098-.186-.163-.265-.059-.018-.133-.021-.173-.058-.044-.04-.073-.116-.074-.178 0-.12.01-.243.036-.361.219-.953.306-1.928.472-2.888.04-.22.075-.436.19-.631.021-.037.037-.08.051-.123l.301-.981c.013-.04.027-.094.058-.115.122-.077.164-.2.209-.324.006-.023.014-.044.027-.062.26-.41.347-.881.467-1.343.062-.24.164-.455.306-.655.083-.115.157-.236.228-.347-.055-.078-.093-.036-.117-.008-.685.765-1.437 1.454-2.182 2.156-.75.707-1.532 1.385-2.397 1.95-.203.133-.393.278-.59.417-.47.327-.963.607-1.517.757-.226.061-.426.158-.613.303-.296.231-.645.365-.995.493-.06.022-.129.03-.187.061-.146.077-.28.082-.43-.005-.1-.06-.228-.066-.342-.108-.056-.02-.103-.065-.173-.11.074-.06.131-.101.22-.17l-.505-.107c.028-.047.047-.071.058-.099.053-.137.048-.192-.062-.282-.072-.06-.122-.123-.117-.222.008-.142-.011-.292.029-.424.054-.18.04-.355.027-.528-.03-.33.028-.637.174-.931.171-.347.319-.704.544-1.022.08-.113.11-.265.188-.381.076-.118.206-.202.28-.323.169-.28.407-.487.632-.715.48-.484.993-.928 1.505-1.38.484-.43.94-.894 1.39-1.362.736-.767 1.54-1.444 2.442-2 .156-.097.305-.21.46-.315.315-.218.63-.436.944-.656.062-.041.119-.093.184-.145-.035-.016-.059-.035-.072-.029-.46.197-.919.397-1.379.597-.04.018-.077.044-.115.065-.714.436-1.465.786-2.226 1.12-.567.25-1.162.44-1.746.656-.286.104-.577.2-.861.306-.564.213-1.143.367-1.74.443-.476.058-.953.116-1.429.167-.084.01-.172-.003-.256-.022-.1-.02-.194-.024-.286.026-.396.218-.8.174-1.21.055-.135-.04-.27-.086-.403-.136-.067-.026-.15-.032-.168-.134-.005-.023-.046-.053-.073-.058-.187-.04-.297-.178-.408-.313-.058-.071-.117-.13-.212-.136-.124-.011-.165-.15-.263-.186-.216-.079-.26-.242-.257-.445.002-.076-.011-.153-.019-.23-.006-.077-.016-.146-.071-.214-.064-.076-.092-.173-.03-.274.036-.06-.016-.1-.038-.147-.011-.021 0-.076.014-.08.14-.05.057-.19.112-.274l-.13-.07.092-.238c-.004-.02-.003-.048-.015-.063-.146-.152-.143-.344-.13-.531.006-.08.061-.163.112-.23.25-.329.572-.579.907-.808.11-.074.228-.13.34-.2.13-.082.259-.17.425-.126.008.003.02 0 .032-.002.27-.048.518-.164.77-.268.005-.095.059-.148.145-.172.084-.025.17-.047.252-.07.161-.045.285-.148.424-.239.617-.402 1.26-.739 1.985-.907.978-.227 1.948-.482 2.92-.73.654-.167 1.306-.346 1.959-.522.049-.013.096-.03.147-.049-.019-.034-.025-.064-.041-.07-.604-.275-1.116-.69-1.585-1.157-.144-.145-.295-.26-.515-.263-.008-.076-.003-.145-.03-.198-.029-.057-.09-.094-.14-.14-.082-.07-.174-.13-.249-.21-.257-.277-.59-.45-.865-.701-.04-.036-.103-.057-.124-.102-.133-.286-.43-.399-.624-.618-.043-.048-.113-.073-.15-.126-.207-.292-.48-.507-.77-.705-.035-.025-.063-.047-.054-.104.01-.066-.04-.095-.098-.103-.217-.036-.342-.224-.52-.328-.035-.02-.044-.124-.033-.184.03-.151.071-.302.117-.447.041-.124.035-.237 0-.36-.04-.15-.073-.302-.108-.453-.003-.01-.001-.021-.004-.054.088-.077.096-.177.07-.313-.032-.155-.008-.323-.008-.503.079.01.161.017.244.027.008-.018.028-.04.023-.052-.052-.132-.106-.264-.16-.397-.031-.074-.092-.114-.161-.155-.176-.1-.205-.192-.133-.382.042-.115.103-.22.164-.347.108-.016.225-.02.335-.052.131-.035.15-.176.192-.268.136-.006.253-.02.369-.02.36-.004.715-.078 1.068-.1.336-.019.674.044 1.012.075.066.003.118.029.161.09.138.184.32.28.549.313.168.03.332.102.491.175.338.155.672.318 1.027.428.143.042.27.14.407.205.619.285 1.18.67 1.74 1.057.044.03.082.07.13.114-.02.034-.04.067-.07.112.125.155.29.266.464.347.42.197.79.465 1.138.77.271.237.555.465.83.7.09.075.175.16.283.259.046-.09.093-.152.114-.221.108-.378.285-.72.456-1.067.292-.585.576-1.17.894-1.74.67-1.2 1.394-2.36 2.327-3.371.262-.282.536-.554.813-.82.152-.144.333-.245.536-.308.144-.045.293-.09.391-.226.154-.21.36-.22.585-.146l.122.04.303-.364c.064.016.116.024.163.044.118.045.232.053.35.008.156-.058.302-.08.376.124.011.026.046.047.073.065.227.119.28.35.362.563.054.142.057.29.004.423-.044.113-.031.214-.014.324.016.099.043.194.057.292.057.377-.025.724-.179 1.066-.231.511-.44 1.038-.662 1.557-.281.651-.58 1.29-.896 1.923-.147.297-.288.596-.431.896-.022.047-.033.098-.064.198.1-.048.156-.07.208-.1.368-.218.73-.445 1.124-.61.21-.09.422-.18.632-.265.519-.206 1.035-.414 1.555-.616.324-.126.652-.257.983-.365.539-.178 1.059-.41 1.57-.655.267-.13.529-.265.798-.39.097-.045.205-.066.306-.101.476-.163.95-.33 1.425-.488.217-.072.434-.146.672-.08.067.02.146-.007.21-.012.1.133-.064.147-.075.246.046-.008.084-.013.122-.018.228-.032.418.027.515.255.057.132.19.132.293.21-.043.289-.206.508-.374.726-.046.062-.106.113-.162.163-.264.236-.485.507-.69.796-.26.371-.563.706-.872 1.035-.308.327-.672.571-1.08.736-.374.15-.685.378-.983.64-.527.466-1.071.911-1.604 1.37-.36.306-.711.62-1.066.933-.023.019-.032.053-.059.103.057.003.095.013.132.005.323-.052.645-.115.968-.16.368-.053.735-.09 1.105-.134l1.623-.194c.022-.003.043-.006.063-.006.818-.008 1.631-.089 2.45-.05.576.024 1.155-.015 1.735-.03.521-.012 1.044-.014 1.566.057.226.032.458.018.686.03.316.014.631.023.945.052.162.015.326.049.477.107.304.113.609.237.864.458.149.126.322.218.439.386.112.162.136.323.027.486-.084.128-.178.247-.219.402-.019.066-.095.118-.152.168-.102.084-.21.152-.257.292-.04.108-.14.171-.24.215-.37.161-.738.33-1.115.471-.192.073-.403.097-.606.128-.454.064-.9.161-1.337.301-.657.214-1.33.35-1.998.502-.437.1-.87.207-1.309.297-.298.06-.6.109-.903.138-.416.037-.813.148-1.22.229-.448.09-.896.176-1.345.268-.082.014-.162.047-.25.076.06.143.161.21.261.274.953.631 1.81 1.388 2.682 2.126.866.731 1.721 1.47 2.587 2.197.304.253.634.471.95.709.446.337.89.678 1.336 1.016.01.007.02.01.027.02.202.245.412.486.605.74.084.109.078.233.008.37-.224.456-.613.596-1.072.62-.206.013-.413.02-.62.036-.35.027-.695-.016-1.04-.068-.172-.026-.341-.082-.511-.113-.173-.03-.344-.063-.517-.074-.54-.033-1.05-.183-1.548-.381-1.164-.46-2.26-1.05-3.305-1.742-.622-.41-1.243-.823-1.875-1.215-.371-.233-.763-.43-1.146-.641-.034-.016-.078-.021-.143-.039" transform="translate(-292 -204) translate(15 120) rotate(-45 295.537 100.448)"/>
            </g>
        </g>
    </g>
</svg>
