<?xml version="1.0" encoding="utf-8"?>
<svg width="18px" height="20px" viewBox="0 0 18 20" version="1.1" xmlns:xlink="http://www.w3.org/1999/xlink" xmlns="http://www.w3.org/2000/svg">
  <desc>Created with Lunacy</desc>
  <defs>
    <path d="M7.2 18.1818L2.7 18.1818C2.20294 18.1818 1.8 17.7748 1.8 17.2727L1.8 2.72727C1.8 2.2252 2.20294 1.81818 2.7 1.81818L7.2 1.81818C7.69706 1.81818 8.1 1.41117 8.1 0.909091C8.1 0.407014 7.69706 0 7.2 0L2.7 0C1.20883 0 0 1.22104 0 2.72727L0 17.2727C0 18.779 1.20883 20 2.7 20L7.2 20C7.69706 20 8.1 19.593 8.1 19.0909C8.1 18.5888 7.69706 18.1818 7.2 18.1818ZM12.8636 12.9935C12.5121 13.3486 12.5121 13.9242 12.8636 14.2792C13.2151 14.6342 13.7849 14.6342 14.1364 14.2792L17.7363 10.6429L17.7364 10.6428C17.8993 10.4783 18 10.251 18 10C18 9.87674 17.9757 9.7592 17.9317 9.65201C17.8878 9.54479 17.8227 9.44434 17.7364 9.35717L14.1364 5.72081C13.7849 5.36579 13.2151 5.36579 12.8636 5.72081C12.5121 6.07583 12.5121 6.65144 12.8636 7.00646L14.9272 9.09091L6.3 9.09091C5.80294 9.09091 5.4 9.49792 5.4 10C5.4 10.5021 5.80294 10.9091 6.3 10.9091L14.9272 10.9091L12.8636 12.9935Z" id="path_1" />
    <clipPath id="mask_1">
      <use xlink:href="#path_1" />
    </clipPath>
  </defs>
  <path d="M7.2 18.1818L2.7 18.1818C2.20294 18.1818 1.8 17.7748 1.8 17.2727L1.8 2.72727C1.8 2.2252 2.20294 1.81818 2.7 1.81818L7.2 1.81818C7.69706 1.81818 8.1 1.41117 8.1 0.909091C8.1 0.407014 7.69706 0 7.2 0L2.7 0C1.20883 0 0 1.22104 0 2.72727L0 17.2727C0 18.779 1.20883 20 2.7 20L7.2 20C7.69706 20 8.1 19.593 8.1 19.0909C8.1 18.5888 7.69706 18.1818 7.2 18.1818ZM12.8636 12.9935C12.5121 13.3486 12.5121 13.9242 12.8636 14.2792C13.2151 14.6342 13.7849 14.6342 14.1364 14.2792L17.7363 10.6429L17.7364 10.6428C17.8993 10.4783 18 10.251 18 10C18 9.87674 17.9757 9.7592 17.9317 9.65201C17.8878 9.54479 17.8227 9.44434 17.7364 9.35717L14.1364 5.72081C13.7849 5.36579 13.2151 5.36579 12.8636 5.72081C12.5121 6.07583 12.5121 6.65144 12.8636 7.00646L14.9272 9.09091L6.3 9.09091C5.80294 9.09091 5.4 9.49792 5.4 10C5.4 10.5021 5.80294 10.9091 6.3 10.9091L14.9272 10.9091L12.8636 12.9935Z" id="Combined-Shape" fill="#56696A" fill-opacity="0.4" fill-rule="evenodd" stroke="none" />
</svg>