<?xml version="1.0" encoding="utf-8"?>
<svg width="10px" height="14px" viewBox="0 0 10 14" version="1.1" xmlns:xlink="http://www.w3.org/1999/xlink" xmlns="http://www.w3.org/2000/svg">
  <desc>Created with Lunacy</desc>
  <path d="M7.28673 0.409616L13.7133 9.59038Q13.7427 9.63246 13.7617 9.6729Q13.7807 9.71334 13.7887 9.75082Q13.7966 9.7883 13.7932 9.82161Q13.7898 9.85492 13.7752 9.88297Q13.7606 9.91102 13.7353 9.9329Q13.7099 9.95477 13.6747 9.96977Q13.6394 9.98476 13.5954 9.99238Q13.5514 10 13.5 10L0.5 10Q0.448641 10 0.404616 9.99238Q0.36059 9.98476 0.325332 9.96977Q0.290073 9.95477 0.264729 9.9329Q0.239385 9.91102 0.22478 9.88297Q0.210176 9.85492 0.206787 9.82161Q0.203398 9.7883 0.211335 9.75082Q0.219271 9.71334 0.238275 9.6729Q0.257279 9.63246 0.286731 9.59038L6.71327 0.409616Q6.74272 0.367541 6.77636 0.334725Q6.81 0.301908 6.84674 0.279418Q6.88347 0.256928 6.9221 0.245497Q6.96073 0.234066 7 0.234066Q7.03927 0.234066 7.0779 0.245497Q7.11653 0.256928 7.15326 0.279418Q7.19 0.301908 7.22364 0.334725Q7.25728 0.367541 7.28673 0.409616Z" transform="matrix(1.192488E-08 1 -1 1.192488E-08 10 0)" id="Triangle" fill="#BBC3C3" stroke="none" />
</svg>