<?xml version="1.0" encoding="utf-8"?>
<svg width="15px" height="15px" viewBox="0 0 15 15" version="1.1" xmlns:xlink="http://www.w3.org/1999/xlink" xmlns="http://www.w3.org/2000/svg">
  <desc>Created with Lunacy</desc>
  <path d="M7.57143 0L7.42857 0Q7.32585 0 7.22713 0.0186045Q7.12842 0.037209 7.03691 0.0738122Q6.9454 0.110415 6.86408 0.163826Q6.78276 0.217236 6.71429 0.285714Q6.64581 0.354193 6.5924 0.43551Q6.53899 0.516827 6.50238 0.608335Q6.46578 0.699843 6.44718 0.798563Q6.42857 0.897283 6.42857 1L6.42857 6.42857L0.999999 6.42857Q0.897282 6.42857 0.798562 6.44718Q0.699842 6.46578 0.608334 6.50238Q0.516826 6.53899 0.435509 6.5924Q0.354192 6.64581 0.285714 6.71429Q0.217236 6.78276 0.163826 6.86408Q0.110415 6.9454 0.0738121 7.03691Q0.0372089 7.12842 0.0186045 7.22713Q0 7.32585 0 7.42857L0 7.57143Q0 7.67415 0.0186045 7.77287Q0.0372089 7.87159 0.0738121 7.96309Q0.110415 8.0546 0.163826 8.13592Q0.217236 8.21724 0.285714 8.28571Q0.354192 8.35419 0.435509 8.4076Q0.516826 8.46101 0.608334 8.49762Q0.699843 8.53422 0.798562 8.55282Q0.897282 8.57143 1 8.57143L6.42857 8.57143L6.42857 14Q6.42857 14.1027 6.44718 14.2014Q6.46578 14.3002 6.50238 14.3917Q6.53899 14.4832 6.5924 14.5645Q6.64581 14.6458 6.71429 14.7143Q6.78276 14.7828 6.86408 14.8362Q6.9454 14.8896 7.03691 14.9262Q7.12842 14.9628 7.22713 14.9814Q7.32585 15 7.42857 15L7.57143 15Q7.67415 15 7.77287 14.9814Q7.87159 14.9628 7.96309 14.9262Q8.0546 14.8896 8.13592 14.8362Q8.21724 14.7828 8.28571 14.7143Q8.35419 14.6458 8.4076 14.5645Q8.46101 14.4832 8.49762 14.3917Q8.53422 14.3002 8.55282 14.2014Q8.57143 14.1027 8.57143 14L8.57143 8.57143L14 8.57143Q14.1027 8.57143 14.2014 8.55282Q14.3002 8.53422 14.3917 8.49762Q14.4832 8.46101 14.5645 8.4076Q14.6458 8.35419 14.7143 8.28571Q14.7828 8.21724 14.8362 8.13592Q14.8896 8.0546 14.9262 7.96309Q14.9628 7.87158 14.9814 7.77287Q15 7.67415 15 7.57143L15 7.42857Q15 7.32585 14.9814 7.22713Q14.9628 7.12841 14.9262 7.03691Q14.8896 6.9454 14.8362 6.86408Q14.7828 6.78276 14.7143 6.71428Q14.6458 6.64581 14.5645 6.5924Q14.4832 6.53899 14.3917 6.50238Q14.3002 6.46578 14.2014 6.44718Q14.1027 6.42857 14 6.42857L8.57143 6.42857L8.57143 1Q8.57143 0.897283 8.55282 0.798563Q8.53422 0.699843 8.49762 0.608335Q8.46101 0.516827 8.4076 0.43551Q8.35419 0.354193 8.28571 0.285714Q8.21724 0.217236 8.13592 0.163826Q8.0546 0.110415 7.96309 0.0738122Q7.87159 0.037209 7.77287 0.0186045Q7.67415 0 7.57143 0Z" id="Combined-Shape" fill="white" fill-rule="evenodd" stroke="none" />
</svg>