<?xml version="1.0" encoding="UTF-8"?>
<svg width="30px" height="30px" viewBox="0 0 30 30" version="1.1" xmlns="http://www.w3.org/2000/svg" xmlns:xlink="http://www.w3.org/1999/xlink">
    <title>Porsiyon</title>
    <g id="Page-1" stroke="none" stroke-width="1" fill="none" fill-rule="evenodd">
        <path d="M11.0352276,1.87975487 C11.3685456,2.64357395 11.0195555,3.53297927 10.2557364,3.86629725 C5.28831255,6.03399871 2.37688862,11.2489673 3.13835868,16.615008 C3.89982873,21.9810487 8.14716006,26.1801515 13.5215465,26.8802944 C18.8959329,27.5804373 24.0773145,24.6096509 26.1881491,19.6177969 C26.5127229,18.8502213 27.398085,18.4910974 28.1656606,18.8156712 C28.9332362,19.140245 29.2923601,20.0256071 28.9677862,20.7931826 C26.328768,27.0341235 19.850875,30.748275 13.1316827,29.8729388 C6.41249028,28.9976026 1.10237039,23.7477793 0.150361465,17.0390209 C-0.801647455,10.3302626 2.83828759,3.8103783 9.0486852,1.10026369 C9.81250428,0.766945708 10.7019096,1.11593579 11.0352276,1.87975487 Z M15.0801463,0 C19.0389857,0 22.8356815,1.57264286 25.6350037,4.37196509 C28.4343259,7.17128733 30.0069688,10.967983 30.0069688,14.9268225 C30.0069688,15.676264 29.3994264,16.2838064 28.6499849,16.2838064 L15.0801463,16.2838064 C14.3307048,16.2838064 13.7231624,15.676264 13.7231624,14.9268225 L13.7231624,1.35698387 C13.7231624,0.607542371 14.3307048,0 15.0801463,0 Z M16.4371301,2.78954733 L16.4371301,13.5698387 L27.2174215,13.5698387 C26.9111833,10.8300627 25.6841451,8.25923642 23.7159387,6.29103008 C21.7477324,4.32282374 19.1769061,3.09578547 16.4371301,2.78954733 Z" id="Porsiyon" fill="#004646" fill-rule="nonzero"></path>
    </g>
</svg>