<svg xmlns="http://www.w3.org/2000/svg" width="28" height="28" viewBox="0 0 28 28">
    <path fill="#73B3B3" d="M.648 25.246l4.846-4.81C1.71 15.594 2.108 8.694 6.456 4.35 8.746 2.06 11.8.8 15.052.8c3.253 0 6.307 1.26 8.597 3.55 2.29 2.288 3.551 5.34 3.551 8.59s-1.261 6.302-3.551 8.591c-2.29 2.289-5.344 3.55-8.597 3.55-2.688 0-5.343-.896-7.467-2.588l-4.813 4.876c-.298.298-.664.431-1.062.431s-.763-.166-1.062-.431c-.597-.564-.597-1.526 0-2.123zM5.892 12.94c0 2.455.963 4.743 2.688 6.468 1.726 1.725 4.05 2.687 6.472 2.687 2.423 0 4.747-.962 6.473-2.687 1.725-1.725 2.688-4.047 2.688-6.468 0-2.454-.963-4.743-2.688-6.468-1.726-1.725-4.05-2.687-6.473-2.687-2.456 0-4.746.962-6.472 2.687-1.725 1.725-2.688 4.014-2.688 6.468z"/>
</svg>
