<?xml version="1.0" encoding="utf-8"?>
<svg width="20px" height="20px" viewBox="0 0 20 20" version="1.1" xmlns:xlink="http://www.w3.org/1999/xlink" xmlns="http://www.w3.org/2000/svg">
  <desc>Created with Lunacy</desc>
  <path d="M19.6681 18.1081L16.0787 14.5455C18.8814 10.9582 18.5864 5.84767 15.3657 2.62899C13.6693 0.933661 11.4075 0 8.99816 0C6.58881 0 4.32698 0.933661 2.63061 2.62899C0.934235 4.32432 0 6.58477 0 8.99263C0 11.4005 0.934235 13.6609 2.63061 15.3563C4.32698 17.0516 6.58881 17.9853 8.99816 17.9853C10.9896 17.9853 12.9564 17.3219 14.5298 16.0688L18.0947 19.6806C18.3159 19.9017 18.5864 20 18.8814 20C19.1764 20 19.4468 19.8771 19.6681 19.6806C20.1106 19.2629 20.1106 18.5504 19.6681 18.1081ZM15.7837 8.99263C15.7837 10.8108 15.0707 12.5061 13.7923 13.7838C12.5138 15.0614 10.7929 15.774 8.99816 15.774C7.20344 15.774 5.48248 15.0614 4.20406 13.7838C2.92563 12.5061 2.21266 10.7862 2.21266 8.99263C2.21266 7.17445 2.92563 5.47912 4.20406 4.20147C5.48248 2.92383 7.20344 2.2113 8.99816 2.2113C10.8175 2.2113 12.5138 2.92383 13.7923 4.20147C15.0707 5.47912 15.7837 7.17445 15.7837 8.99263Z" id="Shape" fill="#064545" stroke="none" />
</svg>