<svg xmlns="http://www.w3.org/2000/svg" width="20" height="22" viewBox="0 0 20 22">
    <g fill="none" fill-rule="evenodd">
        <g fill="#064545" fill-rule="nonzero" stroke="#064545" stroke-width=".75">
            <g>
                <g>
                    <path d="M14.43 5.93c-1.634 0-2.965-1.33-2.965-2.965C11.465 1.33 12.796 0 14.431 0c1.634 0 2.965 1.33 2.965 2.965 0 1.635-1.33 2.965-2.965 2.965zm0-4.744c-.98 0-1.779.798-1.779 1.78 0 .98.8 1.778 1.78 1.778s1.779-.797 1.779-1.779c0-.981-.799-1.779-1.78-1.779zM14.43 18.977c-1.634 0-2.965-1.33-2.965-2.965 0-1.635 1.331-2.965 2.966-2.965 1.634 0 2.965 1.33 2.965 2.965 0 1.635-1.33 2.965-2.965 2.965zm0-4.744c-.98 0-1.779.798-1.779 1.78 0 .98.8 1.778 1.78 1.778s1.779-.798 1.779-1.779c0-.981-.799-1.779-1.78-1.779zM2.965 12.454C1.331 12.454 0 11.124 0 9.489c0-1.636 1.33-2.966 2.965-2.966 1.635 0 2.965 1.33 2.965 2.966 0 1.635-1.33 2.965-2.965 2.965zm0-4.744c-.98 0-1.779.797-1.779 1.779 0 .981.799 1.779 1.78 1.779.98 0 1.778-.798 1.778-1.78 0-.98-.798-1.778-1.779-1.778z" transform="translate(-335 -59) translate(20 60) translate(316.373 .5)"/>
                    <path d="M5.03 8.911c-.207 0-.407-.107-.516-.298-.162-.285-.063-.647.222-.81l7.337-4.182c.284-.164.647-.064.808.221.162.285.063.647-.222.81L5.322 8.833c-.092.052-.193.077-.292.077h0zM12.366 15.435c-.1 0-.2-.026-.293-.078l-7.337-4.183c-.284-.162-.383-.525-.221-.81.161-.285.524-.384.808-.22l7.337 4.182c.285.162.384.524.222.81-.11.191-.31.299-.516.299z" transform="translate(-335 -59) translate(20 60) translate(316.373 .5)"/>
                </g>
            </g>
        </g>
    </g>
</svg>
