<?xml version="1.0" encoding="utf-8"?>
<svg id="sort" viewBox="0 0 18 13" version="1.1" xmlns:xlink="http://www.w3.org/1999/xlink" xmlns="http://www.w3.org/2000/svg">
  <desc>Created with Lunacy</desc>
  <g id="Group-5">
    <g id="Group-6">
      <path d="M0.75 0L11.25 0Q11.327 0 11.4011 0.0139534Q11.4751 0.0279067 11.5437 0.0553591Q11.6124 0.0828116 11.6734 0.122869Q11.7344 0.162927 11.7857 0.214286Q11.8371 0.265645 11.8771 0.326632Q11.9172 0.38762 11.9446 0.456251Q11.9721 0.524882 11.986 0.598922Q12 0.672962 12 0.75L12 0.75Q12 0.827038 11.986 0.901078Q11.9721 0.975118 11.9446 1.04375Q11.9172 1.11238 11.8771 1.17337Q11.8371 1.23436 11.7857 1.28571Q11.7344 1.33707 11.6734 1.37713Q11.6124 1.41719 11.5437 1.44464Q11.4751 1.47209 11.4011 1.48605Q11.327 1.5 11.25 1.5L0.75 1.5Q0.672962 1.5 0.598922 1.48605Q0.524882 1.47209 0.456251 1.44464Q0.38762 1.41719 0.326632 1.37713Q0.265645 1.33707 0.214286 1.28571Q0.162927 1.23436 0.122869 1.17337Q0.0828116 1.11238 0.0553591 1.04375Q0.0279067 0.975118 0.0139534 0.901078Q0 0.827038 0 0.75L0 0.75Q0 0.672962 0.0139534 0.598922Q0.0279067 0.524882 0.0553591 0.456251Q0.0828116 0.38762 0.122869 0.326632Q0.162927 0.265645 0.214286 0.214286Q0.265645 0.162927 0.326632 0.122869Q0.38762 0.0828116 0.456251 0.0553591Q0.524882 0.0279067 0.598922 0.0139534Q0.672962 0 0.75 0Z" stroke="none" fill="#3ad0aa" />
      <path d="M0.75 0L9.25 0Q9.32704 0 9.40108 0.0139534Q9.47512 0.0279067 9.54375 0.0553591Q9.61238 0.0828116 9.67337 0.122869Q9.73436 0.162927 9.78572 0.214286Q9.83707 0.265645 9.87713 0.326632Q9.91719 0.38762 9.94464 0.456251Q9.97209 0.524882 9.98605 0.598922Q10 0.672962 10 0.75L10 0.75Q10 0.827038 9.98605 0.901078Q9.97209 0.975118 9.94464 1.04375Q9.91719 1.11238 9.87713 1.17337Q9.83707 1.23436 9.78572 1.28571Q9.73436 1.33707 9.67337 1.37713Q9.61238 1.41719 9.54375 1.44464Q9.47512 1.47209 9.40108 1.48605Q9.32704 1.5 9.25 1.5L0.75 1.5Q0.672962 1.5 0.598922 1.48605Q0.524882 1.47209 0.456251 1.44464Q0.38762 1.41719 0.326632 1.37713Q0.265645 1.33707 0.214286 1.28571Q0.162927 1.23436 0.122869 1.17337Q0.0828116 1.11238 0.0553591 1.04375Q0.0279067 0.975118 0.0139534 0.901078Q0 0.827038 0 0.75L0 0.75Q0 0.672962 0.0139534 0.598922Q0.0279067 0.524882 0.0553591 0.456251Q0.0828116 0.38762 0.122869 0.326632Q0.162927 0.265645 0.214286 0.214286Q0.265645 0.162927 0.326632 0.122869Q0.38762 0.0828116 0.456251 0.0553591Q0.524882 0.0279067 0.598922 0.0139534Q0.672962 0 0.75 0Z" transform="translate(0 3.7)" stroke="none" fill="#3ad0aa" />
      <path d="M0.75 0L6.25 0Q6.32704 0 6.40108 0.0139534Q6.47512 0.0279067 6.54375 0.0553591Q6.61238 0.0828116 6.67337 0.122869Q6.73436 0.162927 6.78571 0.214286Q6.83707 0.265645 6.87713 0.326632Q6.91719 0.38762 6.94464 0.456251Q6.97209 0.524882 6.98605 0.598922Q7 0.672962 7 0.75L7 0.75Q7 0.827038 6.98605 0.901078Q6.97209 0.975118 6.94464 1.04375Q6.91719 1.11238 6.87713 1.17337Q6.83707 1.23435 6.78571 1.28571Q6.73436 1.33707 6.67337 1.37713Q6.61238 1.41719 6.54375 1.44464Q6.47512 1.47209 6.40108 1.48605Q6.32704 1.5 6.25 1.5L0.75 1.5Q0.672962 1.5 0.598922 1.48605Q0.524882 1.47209 0.456251 1.44464Q0.38762 1.41719 0.326632 1.37713Q0.265645 1.33707 0.214286 1.28571Q0.162927 1.23435 0.122869 1.17337Q0.0828116 1.11238 0.0553591 1.04375Q0.0279067 0.975118 0.0139534 0.901078Q0 0.827038 0 0.75L0 0.75Q0 0.672962 0.0139534 0.598922Q0.0279067 0.524882 0.0553591 0.456251Q0.0828116 0.38762 0.122869 0.326632Q0.162927 0.265645 0.214286 0.214286Q0.265645 0.162927 0.326632 0.122869Q0.38762 0.0828116 0.456251 0.0553591Q0.524882 0.0279067 0.598922 0.0139534Q0.672962 0 0.75 0Z" transform="translate(0 7.4)" stroke="none" fill="#3ad0aa" />
      <path d="M0.75 0L3.75 0Q3.82704 0 3.90108 0.0139534Q3.97512 0.0279067 4.04375 0.0553591Q4.11238 0.0828116 4.17337 0.122869Q4.23436 0.162927 4.28571 0.214286Q4.33707 0.265645 4.37713 0.326632Q4.41719 0.38762 4.44464 0.456251Q4.47209 0.524882 4.48605 0.598922Q4.5 0.672962 4.5 0.75L4.5 0.75Q4.5 0.827038 4.48605 0.901078Q4.47209 0.975118 4.44464 1.04375Q4.41719 1.11238 4.37713 1.17337Q4.33707 1.23436 4.28571 1.28571Q4.23436 1.33707 4.17337 1.37713Q4.11238 1.41719 4.04375 1.44464Q3.97512 1.47209 3.90108 1.48605Q3.82704 1.5 3.75 1.5L0.75 1.5Q0.672962 1.5 0.598922 1.48605Q0.524882 1.47209 0.456251 1.44464Q0.38762 1.41719 0.326632 1.37713Q0.265645 1.33707 0.214286 1.28571Q0.162927 1.23436 0.122869 1.17337Q0.0828116 1.11238 0.0553591 1.04375Q0.0279067 0.975118 0.0139534 0.901078Q0 0.827038 0 0.75L0 0.75Q0 0.672962 0.0139534 0.598922Q0.0279067 0.524882 0.0553591 0.456251Q0.0828116 0.38762 0.122869 0.326632Q0.162927 0.265645 0.214286 0.214286Q0.265645 0.162927 0.326632 0.122869Q0.38762 0.0828116 0.456251 0.0553591Q0.524882 0.0279067 0.598922 0.0139534Q0.672962 0 0.75 0Z" transform="translate(0 11.1)" stroke="none" fill="#3ad0aa" />
      <path d="M1.01493 4.08571C0.776119 4.33333 0.41791 4.33333 0.179104 4.08571C-0.0597015 3.8381 -0.0597015 3.46667 0.179104 3.21905L3.10448 0.185714C3.34328 -0.0619048 3.70149 -0.0619048 3.9403 0.185714L6.86567 3.21905C7.04478 3.46667 7.04478 3.8381 6.86567 4.08571C6.62687 4.33333 6.20896 4.33333 5.97015 4.08571L4.1194 2.10476L4.1194 12.381C4.1194 12.6905 3.8209 13 3.52239 13C3.16418 13 2.92537 12.6905 2.92537 12.381L2.92537 2.10476L1.01493 4.08571Z" transform="matrix(-1 8.742278E-08 -8.742278E-08 -1 18 13)" stroke="none" fill="#3ad0aa" />
    </g>
  </g>
</svg>