<?xml version="1.0" encoding="utf-8"?>
<svg width="28px" height="37px" viewBox="0 0 28 37" version="1.1" xmlns:xlink="http://www.w3.org/1999/xlink" xmlns="http://www.w3.org/2000/svg">
  <desc>Created with Lunacy</desc>
  <path d="M23 3.81223C23 7.06147 21.7143 8.76316 17.8571 8.76316C14 8.76316 14 4.76494 14 3.81223C14 2.85952 14.348 1.18686 16.5714 0.171872C17.8571 -0.415062 20.8929 0.617811 21.7143 1.5157C22.465 2.33637 23 2.60088 23 3.81223ZM7.33333 23.3684C9.16667 23.3684 11 23.0786 11 18.2634C11 16.4683 10.2371 16.0763 9.16667 14.8601C7.99548 13.5295 5.14504 11.7862 3.66667 13.1584C1.83333 14.8601 0 14.5042 0 18.2634C0 22.0226 5.5 23.3684 7.33333 23.3684ZM21.1429 37C22.8571 37 28 37 28 29.9387C28 28.0764 27.2867 27.6698 26.2857 26.4081C25.1906 25.0277 22.8571 23.7404 21.1429 24.6428C18.1783 26.2032 16 26.0389 16 29.9387C16 33.8386 19.4286 37 21.1429 37Z" id="Combined-Shape" fill="#BAE4EE" fill-rule="evenodd" stroke="none" />
</svg>