<?xml version="1.0" encoding="utf-8"?>
<svg width="17px" height="15px" viewBox="0 0 17 15" version="1.1" xmlns:xlink="http://www.w3.org/1999/xlink" xmlns="http://www.w3.org/2000/svg">
  <desc>Created with Lunacy</desc>
  <path d="M16.2404 0.322583C15.4472 -0.247045 14.352 -0.0381813 13.7854 0.759298L7.00602 10.4999L3.00258 6.47457C2.32275 5.79101 1.1897 5.79101 0.509872 6.47457C-0.169957 7.15812 -0.169957 8.29738 0.509872 8.98093L5.98627 14.4873C6.32619 14.8291 6.77941 15 7.23263 15C7.23263 15 7.23263 15 7.25151 15C7.25151 15 7.3837 15 7.42147 15C7.91246 14.962 8.38456 14.6962 8.70559 14.2595L16.6936 2.79097C17.2412 1.9745 17.0335 0.873224 16.2404 0.322583Z" id="Path" fill="#BBC3C3" stroke="none" />
</svg>