<?xml version="1.0" encoding="UTF-8"?>
<svg width="20px" height="20px" viewBox="0 0 20 20" version="1.1" xmlns="http://www.w3.org/2000/svg" xmlns:xlink="http://www.w3.org/1999/xlink">
    <title>Combined Shape</title>
    <g id="Page-1" stroke="none" stroke-width="1" fill="none" fill-rule="evenodd">
        <g id="Web" transform="translate(-547.000000, -2513.000000)" fill="#BBC3C3" fill-rule="nonzero">
            <path d="M557,2513 C562.5228,2513 567,2517.47715 567,2523 C567,2528.5228 562.5228,2533 557,2533 C551.47715,2533 547,2528.5228 547,2523 C547,2517.47715 551.47715,2513 557,2513 Z M557,2515 C552.58172,2515 549,2518.58172 549,2523 C549,2527.4183 552.58172,2531 557,2531 C561.4183,2531 565,2527.4183 565,2523 C565,2518.58172 561.4183,2515 557,2515 Z M558,2519 C558.5523,2519 559,2519.44772 559,2520 L559,2524 C559,2524.5523 558.5523,2525 558,2525 L554,2525 C553.44772,2525 553,2524.5523 553,2524 C553,2523.4477 553.44771,2523 554,2523 L557,2523 L557,2520 C557,2519.44772 557.4477,2519 558,2519 Z" id="Combined-Shape"></path>
        </g>
    </g>
</svg>