<?xml version="1.0" encoding="UTF-8"?>
<svg width="30px" height="30px" viewBox="0 0 30 30" version="1.1" xmlns="http://www.w3.org/2000/svg" xmlns:xlink="http://www.w3.org/1999/xlink">
    <title>Süre</title>
    <g id="Page-1" stroke="none" stroke-width="1" fill="none" fill-rule="evenodd">
        <path d="M15,0 C23.2842,0 30,6.715725 30,15 C30,23.2842 23.2842,30 15,30 C6.715725,30 0,23.2842 0,15 C0,6.715725 6.715725,0 15,0 Z M15,3 C8.37258,3 3,8.37258 3,15 C3,21.62745 8.37258,27 15,27 C21.62745,27 27,21.62745 27,15 C27,8.37258 21.62745,3 15,3 Z M16.5,9 C17.32845,9 18,9.67158 18,10.5 L18,16.5 C18,17.32845 17.32845,18 16.5,18 L10.5,18 C9.67158,18 9,17.32845 9,16.5 C9,15.67155 9.671565,15 10.5,15 L15,15 L15,10.5 C15,9.67158 15.67155,9 16.5,9 Z" id="Süre" fill="#064545" fill-rule="nonzero"></path>
    </g>
</svg>