<svg xmlns="http://www.w3.org/2000/svg" xmlns:xlink="http://www.w3.org/1999/xlink" width="13" height="14" viewBox="0 0 13 14">
    <defs>
        <path id="oeg2itz1za" d="M7.8 0c1.077 0 1.95.855 1.95 1.91l-.001.635h2.601c.326 0 .597.236.643.543l.007.094c0 .351-.291.636-.65.636h-.651l.001 8.273c0 1.004-.792 1.827-1.798 1.903L9.75 14h-6.5c-1.077 0-1.95-.855-1.95-1.91l-.001-8.272H.65c-.326 0-.597-.235-.643-.542L0 3.182c0-.352.291-.637.65-.637h2.599l.001-.636C3.25.905 4.042.082 5.048.006L5.2 0zm2.599 3.818h-7.8l.001 8.273c0 .32.24.584.554.63l.096.006h6.5c.359 0 .65-.285.65-.636l-.001-8.273zM7.8 1.273H5.2c-.359 0-.65.285-.65.636l-.001.636h3.9l.001-.636c0-.32-.24-.584-.554-.63L7.8 1.274z"/>
    </defs>
    <g fill="none" fill-rule="evenodd">
        <g>
            <g transform="translate(-342 -176) translate(342 176)">
                <use fill="#56696A" fill-rule="nonzero" opacity=".5" xlink:href="#oeg2itz1za"/>
            </g>
        </g>
    </g>
</svg>
