<?xml version="1.0" encoding="utf-8"?>
<svg width="19px" height="16px" viewBox="0 0 19 16" version="1.1" xmlns:xlink="http://www.w3.org/1999/xlink" xmlns="http://www.w3.org/2000/svg">
  <desc>Created with Lunacy</desc>
  <path d="M18.4591 0.355118C17.9071 0.721614 16.6396 1.25418 16.0145 1.25418L16.0145 1.25528C15.3007 0.482462 14.2958 0 13.1814 0C11.0168 0 9.26166 1.81913 9.26166 4.06165C9.26166 4.37322 9.29649 4.67714 9.36088 4.96859L9.36024 4.96859C6.42411 4.88872 3.2129 3.36345 1.27976 0.752903C0.0912 2.88514 1.11973 5.25653 2.46852 6.12059C2.00682 6.15669 1.15689 6.06545 0.756833 5.66088C0.730022 7.0761 1.38658 8.95125 3.78058 9.63151C3.31951 9.8886 2.50336 9.81487 2.14848 9.76016C2.27303 10.9548 3.88719 12.5166 5.65229 12.5166C5.02318 13.2709 2.6562 14.6388 0 14.2036C1.80394 15.3412 3.9064 16 6.13172 16C12.4556 16 17.3666 10.6881 17.1023 4.13517C17.1013 4.12795 17.1013 4.12072 17.1006 4.11285C17.1013 4.096 17.1023 4.07915 17.1023 4.06165C17.1023 4.0413 17.1006 4.02204 17.1 4.00235C17.6757 3.59428 18.4482 2.87245 19 1.92241C18.68 2.10511 17.7198 2.47095 16.8264 2.56175C17.3998 2.24098 18.2493 1.19051 18.4591 0.355118" id="Fill-1" fill="#BBC3C3" stroke="none" />
</svg>