<?xml version="1.0" encoding="utf-8"?>
<svg width="18px" height="20px" viewBox="0 0 18 20" version="1.1" xmlns:xlink="http://www.w3.org/1999/xlink" xmlns="http://www.w3.org/2000/svg">
  <desc>Created with Lunacy</desc>
  <defs>
    <path d="M12.2929 5.83681C12.6834 6.23621 13.3166 6.23621 13.7071 5.83681C14.0976 5.43741 14.0976 4.78986 13.7071 4.39046L9.70711 0.29955C9.51184 0.0998502 9.25592 2.74151e-07 9 0C8.86441 0 8.73512 0.0275988 8.61722 0.0776033C8.49927 0.127512 8.38877 0.201494 8.29289 0.29955L4.29289 4.39046C3.90237 4.78986 3.90237 5.43741 4.29289 5.83681C4.68342 6.23621 5.31658 6.23621 5.70711 5.83681L8 3.49181L8 10.5682C8 11.133 8.44771 11.5909 9 11.5909C9.55228 11.5909 10 11.133 10 10.5682L10 3.49181L12.2929 5.83681ZM0 8.75L0 16.9318C0 18.6263 1.34315 20 3 20L15 20C16.6569 20 18 18.6263 18 16.9318L18 8.75C18 8.18516 17.5523 7.72727 17 7.72727C16.4477 7.72727 16 8.18516 16 8.75L16 16.9318C16 17.4967 15.5523 17.9545 15 17.9545L3 17.9545C2.44772 17.9545 2 17.4967 2 16.9318L2 8.75C2 8.18516 1.55228 7.72727 1 7.72727C0.447715 7.72727 0 8.18516 0 8.75Z" id="path_1" />
    <clipPath id="mask_1">
      <use xlink:href="#path_1" />
    </clipPath>
  </defs>
  <path d="M12.2929 5.83681C12.6834 6.23621 13.3166 6.23621 13.7071 5.83681C14.0976 5.43741 14.0976 4.78986 13.7071 4.39046L9.70711 0.29955C9.51184 0.0998502 9.25592 2.74151e-07 9 0C8.86441 0 8.73512 0.0275988 8.61722 0.0776033C8.49927 0.127512 8.38877 0.201494 8.29289 0.29955L4.29289 4.39046C3.90237 4.78986 3.90237 5.43741 4.29289 5.83681C4.68342 6.23621 5.31658 6.23621 5.70711 5.83681L8 3.49181L8 10.5682C8 11.133 8.44771 11.5909 9 11.5909C9.55228 11.5909 10 11.133 10 10.5682L10 3.49181L12.2929 5.83681ZM0 8.75L0 16.9318C0 18.6263 1.34315 20 3 20L15 20C16.6569 20 18 18.6263 18 16.9318L18 8.75C18 8.18516 17.5523 7.72727 17 7.72727C16.4477 7.72727 16 8.18516 16 8.75L16 16.9318C16 17.4967 15.5523 17.9545 15 17.9545L3 17.9545C2.44772 17.9545 2 17.4967 2 16.9318L2 8.75C2 8.18516 1.55228 7.72727 1 7.72727C0.447715 7.72727 0 8.18516 0 8.75Z" id="Combined-Shape" fill="#BBC3C3" fill-rule="evenodd" stroke="none" />
</svg>