<?xml version="1.0" encoding="utf-8"?>
<svg width="18px" height="20px" viewBox="0 0 18 20" version="1.1" xmlns:xlink="http://www.w3.org/1999/xlink" xmlns="http://www.w3.org/2000/svg">
  <desc>Created with Lunacy</desc>
  <path d="M9 10C6.23858 10 4 7.76142 4 5C4 2.23858 6.23858 0 9 0C11.7614 0 14 2.23858 14 5C14 7.76142 11.7614 10 9 10ZM12 5C12 6.65685 10.6569 8 9 8C7.34315 8 6 6.65685 6 5C6 3.34315 7.34315 2 9 2C10.6569 2 12 3.34315 12 5ZM18 19L18 17C18 14.2386 15.7614 12 13 12L5 12C2.23858 12 0 14.2386 0 17L0 19C0 19.5523 0.447715 20 1 20C1.55228 20 2 19.5523 2 19L2 17C2 15.3431 3.34315 14 5 14L13 14C14.6569 14 16 15.3431 16 17L16 19C16 19.5523 16.4477 20 17 20C17.5523 20 18 19.5523 18 19Z" id="Combined-Shape" fill="#FFF" fill-rule="evenodd" stroke="none" />
</svg>