<?xml version="1.0" encoding="utf-8"?>
<svg width="19px" height="13px" viewBox="0 0 19 13" version="1.1" xmlns:xlink="http://www.w3.org/1999/xlink" xmlns="http://www.w3.org/2000/svg">
  <desc>Created with Lunacy</desc>
  <path d="M16.9235 0.388016C17.7411 0.601603 18.3849 1.23089 18.6035 2.02993C19.0005 3.47822 19.0005 6.50003 19.0005 6.50003C19.0005 6.50003 19.0005 9.52178 18.6035 10.9701C18.3849 11.7691 17.7411 12.3984 16.9235 12.612C15.4417 13.0001 9.49963 13.0001 9.49963 13.0001C9.49963 13.0001 3.55757 13.0001 2.07574 12.612C1.25819 12.3984 0.614316 11.7691 0.395769 10.9701C-0.00129106 9.52178 -0.00129106 6.50003 -0.00129106 6.50003C-0.00129106 6.50003 -0.00129106 3.47822 0.395769 2.02993C0.614316 1.23089 1.25819 0.601603 2.07574 0.388016C3.55757 -7.89936e-05 9.49963 -7.89936e-05 9.49963 -7.89936e-05C9.49963 -7.89936e-05 15.4417 -7.89936e-05 16.9235 0.388016ZM12.5658 6.4339L7.59944 9.17736L7.59944 3.69029L12.5658 6.4339Z" id="Combined-Shape" fill="#FFF" fill-rule="evenodd" stroke="none" />
</svg>